<svg xmlns="http://www.w3.org/2000/svg" width="549.3145751953125" height="516.494140625" viewBox="-281.85174560546875 -266.6778869628906 549.3145751953125 516.494140625"><title>Neo4j Graph Visualization</title><desc>Created using Neo4j (http://www.neo4j.com/)</desc><g class="layer relationships"><g class="relationship selected" transform="translate(-11.010057723315406 -11.305613824869173) rotate(490.5568171414769)"><path class="b-outline" fill="#604A0E" stroke="none" d="M 40 0.5 L 81.3072625132915 0.5 L 81.3072625132915 -0.5 L 40 -0.5 Z M 142.4517937632915 0.5 L 183.759056276583 0.5 L 183.759056276583 3.5 L 190.759056276583 0 L 183.759056276583 -3.5 L 183.759056276583 -0.5 L 142.4517937632915 -0.5 Z"/><text text-anchor="middle" pointer-events="none" font-size="8px" fill="#000000" x="111.8795281382915" y="3" transform="rotate(180 111.8795281382915 0)" font-family="Helvetica Neue, Helvetica, Arial, sans-serif">has_Participant</text></g><g class="relationship" transform="translate(-11.010057723315406 -11.305613824869173) rotate(196.21623474461353)"><path class="b-outline" fill="#604A0E" stroke="none" d="M 40 0.5 L 89.15937660263951 0.5 L 89.15937660263951 -0.5 L 40 -0.5 Z M 140.0812516026395 0.5 L 189.24062820527902 0.5 L 189.24062820527902 3.5 L 196.24062820527902 0 L 189.24062820527902 -3.5 L 189.24062820527902 -0.5 L 140.0812516026395 -0.5 Z"/><text text-anchor="middle" pointer-events="none" font-size="8px" fill="#000000" x="114.62031410263951" y="3" transform="rotate(180 114.62031410263951 0)" font-family="Helvetica Neue, Helvetica, Arial, sans-serif">has_location</text></g><g class="relationship" transform="translate(-11.010057723315406 -11.305613824869173) rotate(397.9759644009673)"><path class="b-outline" fill="#C990C0" stroke="none" d="M 40 0.5 L 81.83801793102013 0.5 L 81.83801793102013 -0.5 L 40 -0.5 Z M 131.86926793102015 0.5 L 173.70728586204027 0.5 L 173.70728586204027 3.5 L 180.70728586204027 0 L 173.70728586204027 -3.5 L 173.70728586204027 -0.5 L 131.86926793102015 -0.5 Z"/><text text-anchor="middle" pointer-events="none" font-size="8px" fill="#000000" x="106.85364293102013" y="3" font-family="Helvetica Neue, Helvetica, Arial, sans-serif">has_product</text></g><g class="relationship" transform="translate(-48.09423918988132 205.81628170230513) rotate(279.6925274732544)"><path class="b-outline" fill="#DA7194" stroke="none" d="M 40 0.5 L 85.84203349328055 0.5 L 85.84203349328055 -0.5 L 40 -0.5 Z M 127.42406474328055 0.5 L 173.2660982365611 0.5 L 173.2660982365611 3.5 L 180.2660982365611 0 L 173.2660982365611 -3.5 L 173.2660982365611 -0.5 L 127.42406474328055 -0.5 Z"/><text text-anchor="middle" pointer-events="none" font-size="8px" fill="#000000" x="106.63304911828055" y="3" font-family="Helvetica Neue, Helvetica, Arial, sans-serif">related_to</text></g><g class="relationship" transform="translate(-11.010057723315406 -11.305613824869173) rotate(347.8826271394339)"><path class="b-outline" fill="#C990C0" stroke="none" d="M 40 0.5 L 76.50261265762317 0.5 L 76.50261265762317 -0.5 L 40 -0.5 Z M 138.53776890762316 0.5 L 175.04038156524635 0.5 L 175.04038156524635 3.5 L 182.04038156524635 0 L 175.04038156524635 -3.5 L 175.04038156524635 -0.5 L 138.53776890762316 -0.5 Z"/><text text-anchor="middle" pointer-events="none" font-size="8px" fill="#000000" x="107.52019078262317" y="3" font-family="Helvetica Neue, Helvetica, Arial, sans-serif">has_screenplay</text></g><g class="relationship" transform="translate(-11.010057723315406 -11.305613824869173) rotate(373.0887508328011)"><path class="b-outline" fill="#C990C0" stroke="none" d="M 40 0.5 L 91.84778289052751 0.5 L 91.84778289052751 -0.5 L 40 -0.5 Z M 141.87903289052753 0.5 L 193.72681578105502 0.5 L 193.72681578105502 3.5 L 200.72681578105502 0 L 193.72681578105502 -3.5 L 193.72681578105502 -0.5 L 141.87903289052753 -0.5 Z"/><text text-anchor="middle" pointer-events="none" font-size="8px" fill="#000000" x="116.86340789052751" y="3" font-family="Helvetica Neue, Helvetica, Arial, sans-serif">has_product</text></g><g class="relationship" transform="translate(-11.010057723315406 -11.305613824869173) rotate(254.21808710298114)"><path class="b-outline" fill="#C990C0" stroke="none" d="M 40 0.5 L 79.08591315046885 0.5 L 79.08591315046885 -0.5 L 40 -0.5 Z M 133.56638190046885 0.5 L 172.6522950509377 0.5 L 172.6522950509377 3.5 L 179.6522950509377 0 L 172.6522950509377 -3.5 L 172.6522950509377 -0.5 L 133.56638190046885 -0.5 Z"/><text text-anchor="middle" pointer-events="none" font-size="8px" fill="#000000" x="106.32614752546885" y="3" transform="rotate(180 106.32614752546885 0)" font-family="Helvetica Neue, Helvetica, Arial, sans-serif">beMonasebat</text></g><g class="relationship" transform="translate(-11.010057723315406 -11.305613824869173) rotate(318.03737326514204)"><path class="b-outline" fill="#C990C0" stroke="none" d="M 40 0.5 L 74.93461996374985 0.5 L 74.93461996374985 -0.5 L 40 -0.5 Z M 136.96977621374987 0.5 L 171.9043961774997 0.5 L 171.9043961774997 3.5 L 178.9043961774997 0 L 171.9043961774997 -3.5 L 171.9043961774997 -0.5 L 136.96977621374987 -0.5 Z"/><text text-anchor="middle" pointer-events="none" font-size="8px" fill="#000000" x="105.95219808874985" y="3" font-family="Helvetica Neue, Helvetica, Arial, sans-serif">has_screenplay</text></g><g class="relationship" transform="translate(57.81239206572957 -214.28241276059254) rotate(468.7300298995906)"><path class="b-outline" fill="#ECB5C9" stroke="none" d="M 40 0.5 L 82.20847736514634 0.5 L 82.20847736514634 -0.5 L 40 -0.5 Z M 125.11863361514634 0.5 L 167.32711098029267 0.5 L 167.32711098029267 3.5 L 174.32711098029267 0 L 167.32711098029267 -3.5 L 167.32711098029267 -0.5 L 125.11863361514634 -0.5 Z"/><text text-anchor="middle" pointer-events="none" font-size="8px" fill="#000000" x="103.66355549014634" y="3" transform="rotate(180 103.66355549014634 0)" font-family="Helvetica Neue, Helvetica, Arial, sans-serif">participate</text></g><g class="relationship" transform="translate(-11.010057723315406 -11.305613824869173) rotate(223.7417019897685)"><path class="b-outline" fill="#569480" stroke="none" d="M 40 0.5 L 95.08841235017373 0.5 L 95.08841235017373 -0.5 L 40 -0.5 Z M 136.2290373501737 0.5 L 191.31744970034745 0.5 L 191.31744970034745 3.5 L 198.31744970034745 0 L 191.31744970034745 -3.5 L 191.31744970034745 -0.5 L 136.2290373501737 -0.5 Z"/><text text-anchor="middle" pointer-events="none" font-size="8px" fill="#000000" x="115.65872485017373" y="3" transform="rotate(180 115.65872485017373 0)" font-family="Helvetica Neue, Helvetica, Arial, sans-serif">top_event</text></g><g class="relationship" transform="translate(-11.010057723315406 -11.305613824869173) rotate(526.6061605085652)"><path class="b-outline" fill="#604A0E" stroke="none" d="M 40 0.5 L 78.771069684803 0.5 L 78.771069684803 -0.5 L 40 -0.5 Z M 139.915600934803 0.5 L 178.686670619606 0.5 L 178.686670619606 3.5 L 185.686670619606 0 L 178.686670619606 -3.5 L 178.686670619606 -0.5 L 139.915600934803 -0.5 Z"/><text text-anchor="middle" pointer-events="none" font-size="8px" fill="#000000" x="109.343335309803" y="3" transform="rotate(180 109.343335309803 0)" font-family="Helvetica Neue, Helvetica, Arial, sans-serif">has_Participant</text></g><g class="relationship" transform="translate(-11.010057723315406 -11.305613824869173) rotate(426.2147170740069)"><path class="b-outline" fill="#C990C0" stroke="none" d="M 40 0.5 L 77.03809981441925 0.5 L 77.03809981441925 -0.5 L 40 -0.5 Z M 127.06934981441925 0.5 L 164.1074496288385 0.5 L 164.1074496288385 3.5 L 171.1074496288385 0 L 164.1074496288385 -3.5 L 164.1074496288385 -0.5 L 127.06934981441925 -0.5 Z"/><text text-anchor="middle" pointer-events="none" font-size="8px" fill="#000000" x="102.05372481441925" y="3" font-family="Helvetica Neue, Helvetica, Arial, sans-serif">has_product</text></g></g><g class="layer nodes"><g class="node" aria-label="graph-node60" transform="translate(-11.010057723315406,-11.305613824869173)"><circle class="b-outline" cx="0" cy="0" r="40" fill="#F16667" stroke="#eb2728" stroke-width="2px"/><text class="caption" text-anchor="middle" pointer-events="none" x="0" y="0" font-size="10px" fill="#FFFFFF" font-family="Helvetica Neue, Helvetica, Arial, sans-serif"> انتخاب کتاب سال</text><text class="caption" text-anchor="middle" pointer-events="none" x="0" y="10" font-size="10px" fill="#FFFFFF" font-family="Helvetica Neue, Helvetica, Arial, sans-serif"> رضوی</text></g><g class="node" aria-label="graph-node78" transform="translate(-161.0500074571838,164.01624886634642)"><circle class="b-outline" cx="0" cy="0" r="40" fill="#4C8EDA" stroke="#2870c2" stroke-width="2px"/><text class="caption" text-anchor="middle" pointer-events="none" x="0" y="5" font-size="10px" fill="#FFFFFF" font-family="Helvetica Neue, Helvetica, Arial, sans-serif"> شرکت کننده</text></g><g class="node" aria-label="graph-node75" transform="translate(-237.8517568743357,-77.27892616480602)"><circle class="b-outline" cx="0" cy="0" r="40" fill="#DA7194" stroke="#cc3c6c" stroke-width="2px"/><text class="caption" text-anchor="middle" pointer-events="none" x="0" y="5" font-size="10px" fill="#FFFFFF" font-family="Helvetica Neue, Helvetica, Arial, sans-serif"> مشهد</text></g><g class="node" aria-label="graph-node85" transform="translate(162.96664374499017,124.50238807044049)"><circle class="b-outline" cx="0" cy="0" r="40" fill="#ECB5C9" stroke="#da7298" stroke-width="2px"/><text class="caption" text-anchor="middle" pointer-events="none" x="0" y="5" font-size="10px" fill="#2A2C34" font-family="Helvetica Neue, Helvetica, Arial, sans-serif"> نمایش</text></g><g class="node" aria-label="graph-node77" transform="translate(-48.09423918988132,205.81628170230513)"><circle class="b-outline" cx="0" cy="0" r="40" fill="#D9C8AE" stroke="#c0a378" stroke-width="2px"/><text class="caption" text-anchor="middle" pointer-events="none" x="0" y="5" font-size="10px" fill="#2A2C34" font-family="Helvetica Neue, Helvetica, Arial, sans-serif"> مراسم اختتامیه</text></g><g class="node" aria-label="graph-node97" transform="translate(206.08318256499584,-57.91522728348673)"><circle class="b-outline" cx="0" cy="0" r="40" fill="#57C7E3" stroke="#23b3d7" stroke-width="2px"/><text class="caption" text-anchor="middle" pointer-events="none" x="0" y="0" font-size="10px" fill="#2A2C34" font-family="Helvetica Neue, Helvetica, Arial, sans-serif"> نمایشنامه شصت دقیقه</text><text class="caption" text-anchor="middle" pointer-events="none" x="0" y="10" font-size="10px" fill="#2A2C34" font-family="Helvetica Neue, Helvetica, Arial, sans-serif"> مانـده به وقت بارانی</text></g><g class="node" aria-label="graph-node86" transform="translate(223.46278325159778,43.20939953144463)"><circle class="b-outline" cx="0" cy="0" r="40" fill="#ECB5C9" stroke="#da7298" stroke-width="2px"/><text class="caption" text-anchor="middle" pointer-events="none" x="0" y="5" font-size="10px" fill="#2A2C34" font-family="Helvetica Neue, Helvetica, Arial, sans-serif"> موسیقی</text></g><g class="node" aria-label="graph-node84" transform="translate(-70.75031597143544,-222.67787374937325)"><circle class="b-outline" cx="0" cy="0" r="40" fill="#8DCC93" stroke="#5db665" stroke-width="2px"/><text class="caption" text-anchor="middle" pointer-events="none" x="0" y="-5" font-size="10px" fill="#2A2C34" font-family="Helvetica Neue, Helvetica, Arial, sans-serif"> میلاد حضرت امام</text><text class="caption" text-anchor="middle" pointer-events="none" x="0" y="5" font-size="10px" fill="#2A2C34" font-family="Helvetica Neue, Helvetica, Arial, sans-serif"> علی بن موسی</text><text class="caption" text-anchor="middle" pointer-events="none" x="0" y="15" font-size="10px" fill="#2A2C34" font-family="Helvetica Neue, Helvetica, Arial, sans-serif"> الرضا(علیه السلام)</text></g><g class="node" aria-label="graph-node91" transform="translate(151.76312103675957,-157.6751015679655)"><circle class="b-outline" cx="0" cy="0" r="40" fill="#57C7E3" stroke="#23b3d7" stroke-width="2px"/><text class="caption" text-anchor="middle" pointer-events="none" x="0" y="0" font-size="10px" fill="#2A2C34" font-family="Helvetica Neue, Helvetica, Arial, sans-serif"> نمایشنامه بـه روایت</text><text class="caption" text-anchor="middle" pointer-events="none" x="0" y="10" font-size="10px" fill="#2A2C34" font-family="Helvetica Neue, Helvetica, Arial, sans-serif"> خورشیـد</text></g><g class="node" aria-label="graph-node83" transform="translate(57.81239206572957,-214.28241276059254)"><circle class="b-outline" cx="0" cy="0" r="40" fill="#604A0E" stroke="#423204" stroke-width="2px"/><text class="caption" text-anchor="middle" pointer-events="none" x="0" y="5" font-size="10px" fill="#FFFFFF" font-family="Helvetica Neue, Helvetica, Arial, sans-serif"> بنیاد امام رضا</text></g><g class="node" aria-label="graph-node72" transform="translate(-183.1858606458773,-176.08030763325945)"><circle class="b-outline" cx="0" cy="0" r="40" fill="#F16667" stroke="#eb2728" stroke-width="2px"/><text class="caption" text-anchor="middle" pointer-events="none" x="0" y="5" font-size="10px" fill="#FFFFFF" font-family="Helvetica Neue, Helvetica, Arial, sans-serif"> جشنواره دهم</text></g><g class="node" aria-label="graph-node79" transform="translate(-230.55822928239246,40.97319316638293)"><circle class="b-outline" cx="0" cy="0" r="40" fill="#4C8EDA" stroke="#2870c2" stroke-width="2px"/><text class="caption" text-anchor="middle" pointer-events="none" x="0" y="5" font-size="10px" fill="#FFFFFF" font-family="Helvetica Neue, Helvetica, Arial, sans-serif"> داور</text></g><g class="node" aria-label="graph-node87" transform="translate(74.13174377711817,181.87106418273441)"><circle class="b-outline" cx="0" cy="0" r="40" fill="#ECB5C9" stroke="#da7298" stroke-width="2px"/><text class="caption" text-anchor="middle" pointer-events="none" x="0" y="5" font-size="10px" fill="#2A2C34" font-family="Helvetica Neue, Helvetica, Arial, sans-serif"> مقاله</text></g></g></svg>