<svg xmlns="http://www.w3.org/2000/svg" width="465.4846496582031" height="457.4935302734375" viewBox="-135.33242797851562 -221.37640380859375 465.4846496582031 457.4935302734375"><title>Neo4j Graph Visualization</title><desc>Created using Neo4j (http://www.neo4j.com/)</desc><g class="layer relationships"><g class="relationship" transform="translate(89.11917132323501 -5.594749993687753) rotate(407.085399042438)"><path class="b-outline" fill="#C990C0" stroke="none" d="M 40 0.5 L 78.82700199722849 0.5 L 78.82700199722849 -0.5 L 40 -0.5 Z M 133.30747074722848 0.5 L 172.13447274445699 0.5 L 172.13447274445699 3.5 L 179.13447274445699 0 L 172.13447274445699 -3.5 L 172.13447274445699 -0.5 L 133.30747074722848 -0.5 Z"/><text text-anchor="middle" pointer-events="none" font-size="8px" fill="#000000" x="106.06723637222849" y="3" font-family="Helvetica Neue, Helvetica, Arial, sans-serif">beMonasebat</text></g><g class="relationship" transform="translate(89.11917132323501 -5.594749993687753) rotate(248.41631944861513)"><path class="b-outline" fill="#C990C0" stroke="none" d="M 40 0.5 L 63.85188880861915 0.5 L 63.85188880861915 -0.5 L 40 -0.5 Z M 113.88313880861915 0.5 L 137.7350276172383 0.5 L 137.7350276172383 3.5 L 144.7350276172383 0 L 137.7350276172383 -3.5 L 137.7350276172383 -0.5 L 113.88313880861915 -0.5 Z"/><text text-anchor="middle" pointer-events="none" font-size="8px" fill="#000000" x="88.86751380861915" y="3" transform="rotate(180 88.86751380861915 0)" font-family="Helvetica Neue, Helvetica, Arial, sans-serif">has_product</text></g><g class="relationship" transform="translate(258.22311048570475 -129.73163720841836) rotate(503.71811720398284)"><path class="b-outline" fill="#ECB5C9" stroke="none" d="M 40 0.5 L 79.93308732709832 0.5 L 79.93308732709832 -0.5 L 40 -0.5 Z M 122.84324357709832 0.5 L 162.77633090419664 0.5 L 162.77633090419664 3.5 L 169.77633090419664 0 L 162.77633090419664 -3.5 L 162.77633090419664 -0.5 L 122.84324357709832 -0.5 Z"/><text text-anchor="middle" pointer-events="none" font-size="8px" fill="#000000" x="101.38816545209832" y="3" transform="rotate(180 101.38816545209832 0)" font-family="Helvetica Neue, Helvetica, Arial, sans-serif">participate</text></g><g class="relationship" transform="translate(89.11917132323501 -5.594749993687753) rotate(489.9791567260371)"><path class="b-outline" fill="#C990C0" stroke="none" d="M 40 0.5 L 70.59061021797265 0.5 L 70.59061021797265 -0.5 L 40 -0.5 Z M 132.62576646797265 0.5 L 163.2163766859453 0.5 L 163.2163766859453 3.5 L 170.2163766859453 0 L 163.2163766859453 -3.5 L 163.2163766859453 -0.5 L 132.62576646797265 -0.5 Z"/><text text-anchor="middle" pointer-events="none" font-size="8px" fill="#000000" x="101.60818834297265" y="3" transform="rotate(180 101.60818834297265 0)" font-family="Helvetica Neue, Helvetica, Arial, sans-serif">has_screenplay</text></g><g class="relationship" transform="translate(89.11917132323501 -5.594749993687753) rotate(208.0085309350069)"><path class="b-outline" fill="#C990C0" stroke="none" d="M 40 0.5 L 65.65869764648916 0.5 L 65.65869764648916 -0.5 L 40 -0.5 Z M 115.68994764648916 0.5 L 141.34864529297832 0.5 L 141.34864529297832 3.5 L 148.34864529297832 0 L 141.34864529297832 -3.5 L 141.34864529297832 -0.5 L 115.68994764648916 -0.5 Z"/><text text-anchor="middle" pointer-events="none" font-size="8px" fill="#000000" x="90.67432264648916" y="3" transform="rotate(180 90.67432264648916 0)" font-family="Helvetica Neue, Helvetica, Arial, sans-serif">has_product</text></g><g class="relationship" transform="translate(89.11917132323501 -5.594749993687753) rotate(461.9522132834411)"><path class="b-outline" fill="#C990C0" stroke="none" d="M 40 0.5 L 63.69159373259953 0.5 L 63.69159373259953 -0.5 L 40 -0.5 Z M 125.72674998259953 0.5 L 149.41834371519906 0.5 L 149.41834371519906 3.5 L 156.41834371519906 0 L 149.41834371519906 -3.5 L 149.41834371519906 -0.5 L 125.72674998259953 -0.5 Z"/><text text-anchor="middle" pointer-events="none" font-size="8px" fill="#000000" x="94.70917185759953" y="3" transform="rotate(180 94.70917185759953 0)" font-family="Helvetica Neue, Helvetica, Arial, sans-serif">has_screenplay</text></g><g class="relationship" transform="translate(286.1522329337136 -35.81123258484298) rotate(531.2811945047291)"><path class="b-outline" fill="#DA7194" stroke="none" d="M 40 0.5 L 75.37726316491921 0.5 L 75.37726316491921 -0.5 L 40 -0.5 Z M 116.95929441491921 0.5 L 152.33655757983843 0.5 L 152.33655757983843 3.5 L 159.33655757983843 0 L 152.33655757983843 -3.5 L 152.33655757983843 -0.5 L 116.95929441491921 -0.5 Z"/><text text-anchor="middle" pointer-events="none" font-size="8px" fill="#000000" x="96.16827878991921" y="3" transform="rotate(180 96.16827878991921 0)" font-family="Helvetica Neue, Helvetica, Arial, sans-serif">related_to</text></g><g class="relationship" transform="translate(89.11917132323501 -5.594749993687753) rotate(527.4107568112549)"><path class="b-outline" fill="#C990C0" stroke="none" d="M 40 0.5 L 63.932854190936894 0.5 L 63.932854190936894 -0.5 L 40 -0.5 Z M 113.9641041909369 0.5 L 137.8969583818738 0.5 L 137.8969583818738 3.5 L 144.8969583818738 0 L 137.8969583818738 -3.5 L 137.8969583818738 -0.5 L 113.9641041909369 -0.5 Z"/><text text-anchor="middle" pointer-events="none" font-size="8px" fill="#000000" x="88.9484791909369" y="3" transform="rotate(180 88.9484791909369 0)" font-family="Helvetica Neue, Helvetica, Arial, sans-serif">has_product</text></g><g class="relationship" transform="translate(281.3118744237323 75.52077614897162) rotate(202.88232725686726)"><path class="b-outline" fill="#DA7194" stroke="none" d="M 40 0.5 L 80.01354288813063 0.5 L 80.01354288813063 -0.5 L 40 -0.5 Z M 121.59557413813063 0.5 L 161.60911702626126 0.5 L 161.60911702626126 3.5 L 168.60911702626126 0 L 161.60911702626126 -3.5 L 161.60911702626126 -0.5 L 121.59557413813063 -0.5 Z"/><text text-anchor="middle" pointer-events="none" font-size="8px" fill="#000000" x="100.80455851313063" y="3" transform="rotate(180 100.80455851313063 0)" font-family="Helvetica Neue, Helvetica, Arial, sans-serif">related_to</text></g><g class="relationship" transform="translate(89.11917132323501 -5.594749993687753) rotate(289.9023855771051)"><path class="b-outline" fill="#604A0E" stroke="none" d="M 40 0.5 L 60.964429372217694 0.5 L 60.964429372217694 -0.5 L 40 -0.5 Z M 111.8863043722177 0.5 L 132.8507337444354 0.5 L 132.8507337444354 3.5 L 139.8507337444354 0 L 132.8507337444354 -3.5 L 132.8507337444354 -0.5 L 111.8863043722177 -0.5 Z"/><text text-anchor="middle" pointer-events="none" font-size="8px" fill="#000000" x="86.4253668722177" y="3" font-family="Helvetica Neue, Helvetica, Arial, sans-serif">has_location</text></g><g class="relationship" transform="translate(89.11917132323501 -5.594749993687753) rotate(431.6356540133355)"><path class="b-outline" fill="#604A0E" stroke="none" d="M 40 0.5 L 70.08833674020893 0.5 L 70.08833674020893 -0.5 L 40 -0.5 Z M 131.23286799020894 0.5 L 161.32120473041786 0.5 L 161.32120473041786 3.5 L 168.32120473041786 0 L 161.32120473041786 -3.5 L 161.32120473041786 -0.5 L 131.23286799020894 -0.5 Z"/><text text-anchor="middle" pointer-events="none" font-size="8px" fill="#000000" x="100.66060236520893" y="3" font-family="Helvetica Neue, Helvetica, Arial, sans-serif">has_Participant</text></g></g><g class="layer nodes"><g class="node" aria-label="graph-node61" transform="translate(89.11917132323501,-5.594749993687753)"><circle class="b-outline" cx="0" cy="0" r="40" fill="#F16667" stroke="#eb2728" stroke-width="2px"/><text class="caption" text-anchor="middle" pointer-events="none" x="0" y="0" font-size="10px" fill="#FFFFFF" font-family="Helvetica Neue, Helvetica, Arial, sans-serif"> نمایشگاه پوستر</text><text class="caption" text-anchor="middle" pointer-events="none" x="0" y="10" font-size="10px" fill="#FFFFFF" font-family="Helvetica Neue, Helvetica, Arial, sans-serif"> دانشجویی</text></g><g class="node" aria-label="graph-node84" transform="translate(238.32948264068617,154.89263312891313)"><circle class="b-outline" cx="0" cy="0" r="40" fill="#8DCC93" stroke="#5db665" stroke-width="2px"/><text class="caption" text-anchor="middle" pointer-events="none" x="0" y="-5" font-size="10px" fill="#2A2C34" font-family="Helvetica Neue, Helvetica, Arial, sans-serif"> میلاد حضرت امام</text><text class="caption" text-anchor="middle" pointer-events="none" x="0" y="5" font-size="10px" fill="#2A2C34" font-family="Helvetica Neue, Helvetica, Arial, sans-serif"> علی بن موسی</text><text class="caption" text-anchor="middle" pointer-events="none" x="0" y="15" font-size="10px" fill="#2A2C34" font-family="Helvetica Neue, Helvetica, Arial, sans-serif"> الرضا(علیه السلام)</text></g><g class="node" aria-label="graph-node85" transform="translate(21.162597401353473,-177.37639770246264)"><circle class="b-outline" cx="0" cy="0" r="40" fill="#ECB5C9" stroke="#da7298" stroke-width="2px"/><text class="caption" text-anchor="middle" pointer-events="none" x="0" y="5" font-size="10px" fill="#2A2C34" font-family="Helvetica Neue, Helvetica, Arial, sans-serif"> نمایش</text></g><g class="node" aria-label="graph-node83" transform="translate(258.22311048570475,-129.73163720841836)"><circle class="b-outline" cx="0" cy="0" r="40" fill="#604A0E" stroke="#423204" stroke-width="2px"/><text class="caption" text-anchor="middle" pointer-events="none" x="0" y="5" font-size="10px" fill="#FFFFFF" font-family="Helvetica Neue, Helvetica, Arial, sans-serif"> بنیاد امام رضا</text></g><g class="node" aria-label="graph-node93" transform="translate(-45.94672007476396,155.48948265442465)"><circle class="b-outline" cx="0" cy="0" r="40" fill="#DA7194" stroke="#cc3c6c" stroke-width="2px"/><text class="caption" text-anchor="middle" pointer-events="none" x="0" y="5" font-size="10px" fill="#FFFFFF" font-family="Helvetica Neue, Helvetica, Arial, sans-serif"> نمایشنامه دل لـرزه</text></g><g class="node" aria-label="graph-node89" transform="translate(-77.16964405739066,-94.04384305296318)"><circle class="b-outline" cx="0" cy="0" r="40" fill="#ECB5C9" stroke="#da7298" stroke-width="2px"/><text class="caption" text-anchor="middle" pointer-events="none" x="0" y="5" font-size="10px" fill="#2A2C34" font-family="Helvetica Neue, Helvetica, Arial, sans-serif"> ویدیو</text></g><g class="node" aria-label="graph-node92" transform="translate(48.441755581327264,186.56537489277792)"><circle class="b-outline" cx="0" cy="0" r="40" fill="#DA7194" stroke="#cc3c6c" stroke-width="2px"/><text class="caption" text-anchor="middle" pointer-events="none" x="0" y="0" font-size="10px" fill="#FFFFFF" font-family="Helvetica Neue, Helvetica, Arial, sans-serif"> نمایشنامه چـراغ</text><text class="caption" text-anchor="middle" pointer-events="none" x="0" y="10" font-size="10px" fill="#FFFFFF" font-family="Helvetica Neue, Helvetica, Arial, sans-serif"> گمشـدگان</text></g><g class="node" aria-label="graph-node74" transform="translate(286.1522329337136,-35.81123258484298)"><circle class="b-outline" cx="0" cy="0" r="40" fill="#FFC454" stroke="#d7a013" stroke-width="2px"/><text class="caption" text-anchor="middle" pointer-events="none" x="0" y="5" font-size="10px" fill="#2A2C34" font-family="Helvetica Neue, Helvetica, Arial, sans-serif"> عکس شماره 2</text></g><g class="node" aria-label="graph-node88" transform="translate(-91.33243879381546,34.705394237225136)"><circle class="b-outline" cx="0" cy="0" r="40" fill="#ECB5C9" stroke="#da7298" stroke-width="2px"/><text class="caption" text-anchor="middle" pointer-events="none" x="0" y="5" font-size="10px" fill="#2A2C34" font-family="Helvetica Neue, Helvetica, Arial, sans-serif"> صنایع دستی</text></g><g class="node" aria-label="graph-node73" transform="translate(281.3118744237323,75.52077614897162)"><circle class="b-outline" cx="0" cy="0" r="40" fill="#FFC454" stroke="#d7a013" stroke-width="2px"/><text class="caption" text-anchor="middle" pointer-events="none" x="0" y="5" font-size="10px" fill="#2A2C34" font-family="Helvetica Neue, Helvetica, Arial, sans-serif"> عکس شماره 1</text></g><g class="node" aria-label="graph-node76" transform="translate(150.34372428400314,-174.70371055807027)"><circle class="b-outline" cx="0" cy="0" r="40" fill="#57C7E3" stroke="#23b3d7" stroke-width="2px"/><text class="caption" text-anchor="middle" pointer-events="none" x="0" y="5" font-size="10px" fill="#2A2C34" font-family="Helvetica Neue, Helvetica, Arial, sans-serif"> سبزوار</text></g><g class="node" aria-label="graph-node78" transform="translate(154.75253955738947,192.11712449687633)"><circle class="b-outline" cx="0" cy="0" r="40" fill="#4C8EDA" stroke="#2870c2" stroke-width="2px"/><text class="caption" text-anchor="middle" pointer-events="none" x="0" y="5" font-size="10px" fill="#FFFFFF" font-family="Helvetica Neue, Helvetica, Arial, sans-serif"> شرکت کننده</text></g></g></svg>