<svg xmlns="http://www.w3.org/2000/svg" width="475.4166259765625" height="453.3954772949219" viewBox="-176.3229217529297 -293.31280517578125 475.4166259765625 453.3954772949219"><title>Neo4j Graph Visualization</title><desc>Created using Neo4j (http://www.neo4j.com/)</desc><g class="layer relationships"><g class="relationship" transform="translate(53.21273856799201 -64.03606980875438) rotate(489.62385066980175)"><path class="b-outline" fill="#C990C0" stroke="none" d="M 40 0.5 L 62.27275841308564 0.5 L 62.27275841308564 -0.5 L 40 -0.5 Z M 112.30400841308564 0.5 L 134.57676682617128 0.5 L 134.57676682617128 3.5 L 141.57676682617128 0 L 134.57676682617128 -3.5 L 134.57676682617128 -0.5 L 112.30400841308564 -0.5 Z"/><text text-anchor="middle" pointer-events="none" font-size="8px" fill="#000000" x="87.28838341308564" y="3" transform="rotate(180 87.28838341308564 0)" font-family="Helvetica Neue, Helvetica, Arial, sans-serif">has_product</text></g><g class="relationship" transform="translate(53.21273856799201 -64.03606980875438) rotate(250.8347860307087)"><path class="b-outline" fill="#C990C0" stroke="none" d="M 40 0.5 L 58.06803940335111 0.5 L 58.06803940335111 -0.5 L 40 -0.5 Z M 120.10319565335111 0.5 L 138.17123505670222 0.5 L 138.17123505670222 3.5 L 145.17123505670222 0 L 138.17123505670222 -3.5 L 138.17123505670222 -0.5 L 120.10319565335111 -0.5 Z"/><text text-anchor="middle" pointer-events="none" font-size="8px" fill="#000000" x="89.08561752835111" y="3" transform="rotate(180 89.08561752835111 0)" font-family="Helvetica Neue, Helvetica, Arial, sans-serif">has_screenplay</text></g><g class="relationship" transform="translate(178.65767669280484 62.465177699915586) rotate(225.2402168335667)"><path class="b-outline" fill="#ECB5C9" stroke="none" d="M 40 0.5 L 64.1221329370723 0.5 L 64.1221329370723 -0.5 L 40 -0.5 Z M 107.0322891870723 0.5 L 131.1544221241446 0.5 L 131.1544221241446 3.5 L 138.1544221241446 0 L 131.1544221241446 -3.5 L 131.1544221241446 -0.5 L 107.0322891870723 -0.5 Z"/><text text-anchor="middle" pointer-events="none" font-size="8px" fill="#000000" x="85.5772110620723" y="3" transform="rotate(180 85.5772110620723 0)" font-family="Helvetica Neue, Helvetica, Arial, sans-serif">participate</text></g><g class="relationship" transform="translate(53.21273856799201 -64.03606980875438) rotate(447.69466160474246)"><path class="b-outline" fill="#C990C0" stroke="none" d="M 40 0.5 L 61.6166864216509 0.5 L 61.6166864216509 -0.5 L 40 -0.5 Z M 111.6479364216509 0.5 L 133.2646228433018 0.5 L 133.2646228433018 3.5 L 140.2646228433018 0 L 133.2646228433018 -3.5 L 133.2646228433018 -0.5 L 111.6479364216509 -0.5 Z"/><text text-anchor="middle" pointer-events="none" font-size="8px" fill="#000000" x="86.6323114216509" y="3" font-family="Helvetica Neue, Helvetica, Arial, sans-serif">has_product</text></g><g class="relationship" transform="translate(53.21273856799201 -64.03606980875438) rotate(328.81847890358546)"><path class="b-outline" fill="#C990C0" stroke="none" d="M 40 0.5 L 61.587554802498715 0.5 L 61.587554802498715 -0.5 L 40 -0.5 Z M 116.06802355249872 0.5 L 137.65557835499743 0.5 L 137.65557835499743 3.5 L 144.65557835499743 0 L 137.65557835499743 -3.5 L 137.65557835499743 -0.5 L 116.06802355249872 -0.5 Z"/><text text-anchor="middle" pointer-events="none" font-size="8px" fill="#000000" x="88.82778917749872" y="3" font-family="Helvetica Neue, Helvetica, Arial, sans-serif">beMonasebat</text></g><g class="relationship" transform="translate(53.21273856799201 -64.03606980875438) rotate(367.01754646817585)"><path class="b-outline" fill="#604A0E" stroke="none" d="M 40 0.5 L 67.63007349934296 0.5 L 67.63007349934296 -0.5 L 40 -0.5 Z M 128.77460474934296 0.5 L 156.4046782486859 0.5 L 156.4046782486859 3.5 L 163.4046782486859 0 L 156.4046782486859 -3.5 L 156.4046782486859 -0.5 L 128.77460474934296 -0.5 Z"/><text text-anchor="middle" pointer-events="none" font-size="8px" fill="#000000" x="98.20233912434296" y="3" font-family="Helvetica Neue, Helvetica, Arial, sans-serif">has_Participant</text></g><g class="relationship" transform="translate(53.21273856799201 -64.03606980875438) rotate(289.65802088766065)"><path class="b-outline" fill="#604A0E" stroke="none" d="M 40 0.5 L 69.41079578747342 0.5 L 69.41079578747342 -0.5 L 40 -0.5 Z M 120.33267078747342 0.5 L 149.74346657494684 0.5 L 149.74346657494684 3.5 L 156.74346657494684 0 L 149.74346657494684 -3.5 L 149.74346657494684 -0.5 L 120.33267078747342 -0.5 Z"/><text text-anchor="middle" pointer-events="none" font-size="8px" fill="#000000" x="94.87173328747342" y="3" font-family="Helvetica Neue, Helvetica, Arial, sans-serif">has_location</text></g><g class="relationship" transform="translate(53.21273856799201 -64.03606980875438) rotate(210.6233371099346)"><path class="b-outline" fill="#C990C0" stroke="none" d="M 40 0.5 L 59.65362153546613 0.5 L 59.65362153546613 -0.5 L 40 -0.5 Z M 121.68877778546613 0.5 L 141.34239932093226 0.5 L 141.34239932093226 3.5 L 148.34239932093226 0 L 141.34239932093226 -3.5 L 141.34239932093226 -0.5 L 121.68877778546613 -0.5 Z"/><text text-anchor="middle" pointer-events="none" font-size="8px" fill="#000000" x="90.67119966046613" y="3" transform="rotate(180 90.67119966046613 0)" font-family="Helvetica Neue, Helvetica, Arial, sans-serif">has_screenplay</text></g><g class="relationship" transform="translate(53.21273856799201 -64.03606980875438) rotate(530.5776936923369)"><path class="b-outline" fill="#C990C0" stroke="none" d="M 40 0.5 L 65.52089588225712 0.5 L 65.52089588225712 -0.5 L 40 -0.5 Z M 115.55214588225712 0.5 L 141.07304176451424 0.5 L 141.07304176451424 3.5 L 148.07304176451424 0 L 141.07304176451424 -3.5 L 141.07304176451424 -0.5 L 115.55214588225712 -0.5 Z"/><text text-anchor="middle" pointer-events="none" font-size="8px" fill="#000000" x="90.53652088225712" y="3" transform="rotate(180 90.53652088225712 0)" font-family="Helvetica Neue, Helvetica, Arial, sans-serif">has_product</text></g></g><g class="layer nodes"><g class="node" aria-label="graph-node62" transform="translate(53.21273856799201,-64.03606980875438)"><circle class="b-outline" cx="0" cy="0" r="40" fill="#F16667" stroke="#eb2728" stroke-width="2px"/><text class="caption" text-anchor="middle" pointer-events="none" x="0" y="0" font-size="10px" fill="#FFFFFF" font-family="Helvetica Neue, Helvetica, Arial, sans-serif"> همایش نقش زیارت در</text><text class="caption" text-anchor="middle" pointer-events="none" x="0" y="10" font-size="10px" fill="#FFFFFF" font-family="Helvetica Neue, Helvetica, Arial, sans-serif"> کاهش آسیب اجتماعی</text></g><g class="node" aria-label="graph-node85" transform="translate(-62.58687815162723,75.82304150915388)"><circle class="b-outline" cx="0" cy="0" r="40" fill="#ECB5C9" stroke="#da7298" stroke-width="2px"/><text class="caption" text-anchor="middle" pointer-events="none" x="0" y="5" font-size="10px" fill="#2A2C34" font-family="Helvetica Neue, Helvetica, Arial, sans-serif"> نمایش</text></g><g class="node" aria-label="graph-node95" transform="translate(-7.577723590060401,-238.94434863807354)"><circle class="b-outline" cx="0" cy="0" r="40" fill="#F79767" stroke="#f36924" stroke-width="2px"/><text class="caption" text-anchor="middle" pointer-events="none" x="0" y="5" font-size="10px" fill="#FFFFFF" font-family="Helvetica Neue, Helvetica, Arial, sans-serif"> نمایشنامه ســردار</text></g><g class="node" aria-label="graph-node83" transform="translate(178.65767669280484,62.465177699915586)"><circle class="b-outline" cx="0" cy="0" r="40" fill="#569480" stroke="#447666" stroke-width="2px"/><text class="caption" text-anchor="middle" pointer-events="none" x="0" y="5" font-size="10px" fill="#FFFFFF" font-family="Helvetica Neue, Helvetica, Arial, sans-serif"> بنیاد امام رضا</text></g><g class="node" aria-label="graph-node89" transform="translate(60.46386316967527,116.08265614956655)"><circle class="b-outline" cx="0" cy="0" r="40" fill="#ECB5C9" stroke="#da7298" stroke-width="2px"/><text class="caption" text-anchor="middle" pointer-events="none" x="0" y="5" font-size="10px" fill="#2A2C34" font-family="Helvetica Neue, Helvetica, Arial, sans-serif"> ویدیو</text></g><g class="node" aria-label="graph-node84" transform="translate(211.19136345705002,-159.64170089699567)"><circle class="b-outline" cx="0" cy="0" r="40" fill="#8DCC93" stroke="#5db665" stroke-width="2px"/><text class="caption" text-anchor="middle" pointer-events="none" x="0" y="-5" font-size="10px" fill="#2A2C34" font-family="Helvetica Neue, Helvetica, Arial, sans-serif"> میلاد حضرت امام</text><text class="caption" text-anchor="middle" pointer-events="none" x="0" y="5" font-size="10px" fill="#2A2C34" font-family="Helvetica Neue, Helvetica, Arial, sans-serif"> علی بن موسی</text><text class="caption" text-anchor="middle" pointer-events="none" x="0" y="15" font-size="10px" fill="#2A2C34" font-family="Helvetica Neue, Helvetica, Arial, sans-serif"> الرضا(علیه السلام)</text></g><g class="node" aria-label="graph-node79" transform="translate(255.09366831188208,-39.18544930958065)"><circle class="b-outline" cx="0" cy="0" r="40" fill="#C990C0" stroke="#b261a5" stroke-width="2px"/><text class="caption" text-anchor="middle" pointer-events="none" x="0" y="5" font-size="10px" fill="#FFFFFF" font-family="Helvetica Neue, Helvetica, Arial, sans-serif"> داور</text></g><g class="node" aria-label="graph-node75" transform="translate(119.3982986671984,-249.3127906192263)"><circle class="b-outline" cx="0" cy="0" r="40" fill="#57C7E3" stroke="#23b3d7" stroke-width="2px"/><text class="caption" text-anchor="middle" pointer-events="none" x="0" y="5" font-size="10px" fill="#2A2C34" font-family="Helvetica Neue, Helvetica, Arial, sans-serif"> مشهد</text></g><g class="node" aria-label="graph-node94" transform="translate(-108.86241613267123,-159.97617409638576)"><circle class="b-outline" cx="0" cy="0" r="40" fill="#F79767" stroke="#f36924" stroke-width="2px"/><text class="caption" text-anchor="middle" pointer-events="none" x="0" y="0" font-size="10px" fill="#FFFFFF" font-family="Helvetica Neue, Helvetica, Arial, sans-serif"> نمایشنامه روز بـر</text><text class="caption" text-anchor="middle" pointer-events="none" x="0" y="10" font-size="10px" fill="#FFFFFF" font-family="Helvetica Neue, Helvetica, Arial, sans-serif"> می‌آیـد</text></g><g class="node" aria-label="graph-node90" transform="translate(-132.32291594558694,-33.24662449425438)"><circle class="b-outline" cx="0" cy="0" r="40" fill="#ECB5C9" stroke="#da7298" stroke-width="2px"/><text class="caption" text-anchor="middle" pointer-events="none" x="0" y="5" font-size="10px" fill="#2A2C34" font-family="Helvetica Neue, Helvetica, Arial, sans-serif"> داستان</text></g></g></svg>