<svg xmlns="http://www.w3.org/2000/svg" width="432.2868957519531" height="432.08612060546875" viewBox="-210.41995239257812 -199.21778869628906 432.2868957519531 432.08612060546875"><title>Neo4j Graph Visualization</title><desc>Created using Neo4j (http://www.neo4j.com/)</desc><g class="layer relationships"><g class="relationship" transform="translate(5.641268785265729 17.709399889644725) rotate(416.86131971785335)"><path class="b-outline" fill="#604A0E" stroke="none" d="M 40 0.5 L 58.68258783393681 0.5 L 58.68258783393681 -0.5 L 40 -0.5 Z M 109.60446283393681 0.5 L 128.28705066787361 0.5 L 128.28705066787361 3.5 L 135.28705066787361 0 L 128.28705066787361 -3.5 L 128.28705066787361 -0.5 L 109.60446283393681 -0.5 Z"/><text text-anchor="middle" pointer-events="none" font-size="8px" fill="#000000" x="84.14352533393681" y="3" font-family="Helvetica Neue, Helvetica, Arial, sans-serif">has_location</text></g><g class="relationship" transform="translate(5.641268785265729 17.709399889644725) rotate(370.7233013899512)"><path class="b-outline" fill="#604A0E" stroke="none" d="M 40 0.5 L 53.571071820969024 0.5 L 53.571071820969024 -0.5 L 40 -0.5 Z M 114.71560307096902 0.5 L 128.28667489193805 0.5 L 128.28667489193805 3.5 L 135.28667489193805 0 L 128.28667489193805 -3.5 L 128.28667489193805 -0.5 L 114.71560307096902 -0.5 Z"/><text text-anchor="middle" pointer-events="none" font-size="8px" fill="#000000" x="84.14333744596902" y="3" font-family="Helvetica Neue, Helvetica, Arial, sans-serif">has_Participant</text></g><g class="relationship" transform="translate(5.641268785265729 17.709399889644725) rotate(324.99031987107196)"><path class="b-outline" fill="#C990C0" stroke="none" d="M 40 0.5 L 56.96926062046397 0.5 L 56.96926062046397 -0.5 L 40 -0.5 Z M 111.44972937046397 0.5 L 128.41898999092794 0.5 L 128.41898999092794 3.5 L 135.41898999092794 0 L 128.41898999092794 -3.5 L 128.41898999092794 -0.5 L 111.44972937046397 -0.5 Z"/><text text-anchor="middle" pointer-events="none" font-size="8px" fill="#000000" x="84.20949499546397" y="3" font-family="Helvetica Neue, Helvetica, Arial, sans-serif">beMonasebat</text></g><g class="relationship" transform="translate(5.641268785265729 17.709399889644725) rotate(279.76593677380737)"><path class="b-outline" fill="#C990C0" stroke="none" d="M 40 0.5 L 53.217392891730995 0.5 L 53.217392891730995 -0.5 L 40 -0.5 Z M 115.252549141731 0.5 L 128.469942033462 0.5 L 128.469942033462 3.5 L 135.469942033462 0 L 128.469942033462 -3.5 L 128.469942033462 -0.5 L 115.252549141731 -0.5 Z"/><text text-anchor="middle" pointer-events="none" font-size="8px" fill="#000000" x="84.234971016731" y="3" font-family="Helvetica Neue, Helvetica, Arial, sans-serif">has_screenplay</text></g><g class="relationship" transform="translate(-94.00942283073633 -126.63679812462037) rotate(415.3803933931407)"><path class="b-outline" fill="#ECB5C9" stroke="none" d="M 40 0.5 L 62.74624059473331 0.5 L 62.74624059473331 -0.5 L 40 -0.5 Z M 105.65639684473331 0.5 L 128.40263743946662 0.5 L 128.40263743946662 3.5 L 135.40263743946662 0 L 128.40263743946662 -3.5 L 128.40263743946662 -0.5 L 105.65639684473331 -0.5 Z"/><text text-anchor="middle" pointer-events="none" font-size="8px" fill="#000000" x="84.20131871973331" y="3" font-family="Helvetica Neue, Helvetica, Arial, sans-serif">participate</text></g><g class="relationship" transform="translate(5.641268785265729 17.709399889644725) rotate(191.3700950178785)"><path class="b-outline" fill="#C990C0" stroke="none" d="M 40 0.5 L 59.23720244928738 0.5 L 59.23720244928738 -0.5 L 40 -0.5 Z M 109.26845244928738 0.5 L 128.50565489857476 0.5 L 128.50565489857476 3.5 L 135.50565489857476 0 L 128.50565489857476 -3.5 L 128.50565489857476 -0.5 L 109.26845244928738 -0.5 Z"/><text text-anchor="middle" pointer-events="none" font-size="8px" fill="#000000" x="84.25282744928738" y="3" transform="rotate(180 84.25282744928738 0)" font-family="Helvetica Neue, Helvetica, Arial, sans-serif">has_product</text></g><g class="relationship" transform="translate(5.641268785265729 17.709399889644725) rotate(507.13115752940985)"><path class="b-outline" fill="#C990C0" stroke="none" d="M 40 0.5 L 59.219099944315104 0.5 L 59.219099944315104 -0.5 L 40 -0.5 Z M 109.2503499443151 0.5 L 128.4694498886302 0.5 L 128.4694498886302 3.5 L 135.4694498886302 0 L 128.4694498886302 -3.5 L 128.4694498886302 -0.5 L 109.2503499443151 -0.5 Z"/><text text-anchor="middle" pointer-events="none" font-size="8px" fill="#000000" x="84.2347249443151" y="3" transform="rotate(180 84.2347249443151 0)" font-family="Helvetica Neue, Helvetica, Arial, sans-serif">has_product</text></g><g class="relationship" transform="translate(5.641268785265729 17.709399889644725) rotate(462.5039226818548)"><path class="b-outline" fill="#C990C0" stroke="none" d="M 40 0.5 L 59.143009734466304 0.5 L 59.143009734466304 -0.5 L 40 -0.5 Z M 109.1742597344663 0.5 L 128.3172694689326 0.5 L 128.3172694689326 3.5 L 135.3172694689326 0 L 128.3172694689326 -3.5 L 128.3172694689326 -0.5 L 109.1742597344663 -0.5 Z"/><text text-anchor="middle" pointer-events="none" font-size="8px" fill="#000000" x="84.1586347344663" y="3" transform="rotate(180 84.1586347344663 0)" font-family="Helvetica Neue, Helvetica, Arial, sans-serif">has_product</text></g></g><g class="layer nodes"><g class="node selected" aria-label="graph-node63" transform="translate(5.641268785265729,17.709399889644725)"><circle class="b-outline" cx="0" cy="0" r="40" fill="#F16667" stroke="#eb2728" stroke-width="2px"/><text class="caption" text-anchor="middle" pointer-events="none" x="0" y="0" font-size="10px" fill="#FFFFFF" font-family="Helvetica Neue, Helvetica, Arial, sans-serif"> جشنواره دانشجویی</text><text class="caption" text-anchor="middle" pointer-events="none" x="0" y="10" font-size="10px" fill="#FFFFFF" font-family="Helvetica Neue, Helvetica, Arial, sans-serif"> دانشگاه علوم پزشکی</text></g><g class="node" aria-label="graph-node75" transform="translate(101.46498134481541,164.4859860440668)"><circle class="b-outline" cx="0" cy="0" r="40" fill="#57C7E3" stroke="#23b3d7" stroke-width="2px"/><text class="caption" text-anchor="middle" pointer-events="none" x="0" y="5" font-size="10px" fill="#2A2C34" font-family="Helvetica Neue, Helvetica, Arial, sans-serif"> مشهد</text></g><g class="node" aria-label="graph-node78" transform="translate(177.86694880669512,50.32432800282949)"><circle class="b-outline" cx="0" cy="0" r="40" fill="#C990C0" stroke="#b261a5" stroke-width="2px"/><text class="caption" text-anchor="middle" pointer-events="none" x="0" y="5" font-size="10px" fill="#FFFFFF" font-family="Helvetica Neue, Helvetica, Arial, sans-serif"> شرکت کننده</text></g><g class="node" aria-label="graph-node84" transform="translate(149.31909187360037,-82.9310750795966)"><circle class="b-outline" cx="0" cy="0" r="40" fill="#8DCC93" stroke="#5db665" stroke-width="2px"/><text class="caption" text-anchor="middle" pointer-events="none" x="0" y="-5" font-size="10px" fill="#2A2C34" font-family="Helvetica Neue, Helvetica, Arial, sans-serif"> میلاد حضرت امام</text><text class="caption" text-anchor="middle" pointer-events="none" x="0" y="5" font-size="10px" fill="#2A2C34" font-family="Helvetica Neue, Helvetica, Arial, sans-serif"> علی بن موسی</text><text class="caption" text-anchor="middle" pointer-events="none" x="0" y="15" font-size="10px" fill="#2A2C34" font-family="Helvetica Neue, Helvetica, Arial, sans-serif"> الرضا(علیه السلام)</text></g><g class="node" aria-label="graph-node96" transform="translate(35.40511711572919,-155.2177925636756)"><circle class="b-outline" cx="0" cy="0" r="40" fill="#F79767" stroke="#f36924" stroke-width="2px"/><text class="caption" text-anchor="middle" pointer-events="none" x="0" y="0" font-size="10px" fill="#FFFFFF" font-family="Helvetica Neue, Helvetica, Arial, sans-serif"> نمایشنامه سفر به اقلیـم</text><text class="caption" text-anchor="middle" pointer-events="none" x="0" y="10" font-size="10px" fill="#FFFFFF" font-family="Helvetica Neue, Helvetica, Arial, sans-serif"> آفتاب</text></g><g class="node" aria-label="graph-node83" transform="translate(-94.00942283073633,-126.63679812462037)"><circle class="b-outline" cx="0" cy="0" r="40" fill="#569480" stroke="#447666" stroke-width="2px"/><text class="caption" text-anchor="middle" pointer-events="none" x="0" y="5" font-size="10px" fill="#FFFFFF" font-family="Helvetica Neue, Helvetica, Arial, sans-serif"> بنیاد امام رضا</text></g><g class="node" aria-label="graph-node85" transform="translate(-166.41994836251405,-16.89078009546796)"><circle class="b-outline" cx="0" cy="0" r="40" fill="#ECB5C9" stroke="#da7298" stroke-width="2px"/><text class="caption" text-anchor="middle" pointer-events="none" x="0" y="5" font-size="10px" fill="#2A2C34" font-family="Helvetica Neue, Helvetica, Arial, sans-serif"> نمایش</text></g><g class="node" aria-label="graph-node88" transform="translate(-141.73817517613801,112.93979074175643)"><circle class="b-outline" cx="0" cy="0" r="40" fill="#ECB5C9" stroke="#da7298" stroke-width="2px"/><text class="caption" text-anchor="middle" pointer-events="none" x="0" y="5" font-size="10px" fill="#2A2C34" font-family="Helvetica Neue, Helvetica, Arial, sans-serif"> صنایع دستی</text></g><g class="node" aria-label="graph-node86" transform="translate(-32.31605160172903,188.8683517533476)"><circle class="b-outline" cx="0" cy="0" r="40" fill="#ECB5C9" stroke="#da7298" stroke-width="2px"/><text class="caption" text-anchor="middle" pointer-events="none" x="0" y="5" font-size="10px" fill="#2A2C34" font-family="Helvetica Neue, Helvetica, Arial, sans-serif"> موسیقی</text></g></g></svg>