<svg xmlns="http://www.w3.org/2000/svg" width="508.94677734375" height="526.5458984375" viewBox="-353.11553955078125 -210.61241149902344 508.94677734375 526.5458984375"><title>Neo4j Graph Visualization</title><desc>Created using Neo4j (http://www.neo4j.com/)</desc><g class="layer relationships"><g class="relationship" transform="translate(46.672948882535024 -92.52633497931166) rotate(493.7226413167515)"><path class="b-outline" fill="#DA7194" stroke="none" d="M 40 0.5 L 76.57237090293334 0.5 L 76.57237090293334 -0.5 L 40 -0.5 Z M 118.15440215293334 0.5 L 154.7267730558667 0.5 L 154.7267730558667 3.5 L 161.7267730558667 0 L 154.7267730558667 -3.5 L 154.7267730558667 -0.5 L 118.15440215293334 -0.5 Z"/><text text-anchor="middle" pointer-events="none" font-size="8px" fill="#000000" x="97.36338652793334" y="3" transform="rotate(180 97.36338652793334 0)" font-family="Helvetica Neue, Helvetica, Arial, sans-serif">related_to</text></g><g class="relationship" transform="translate(-92.75415124484867 53.26040899146799) rotate(212.51078459440708)"><path class="b-outline" fill="#C990C0" stroke="none" d="M 40 0.5 L 74.5777939974621 0.5 L 74.5777939974621 -0.5 L 40 -0.5 Z M 136.6129502474621 0.5 L 171.1907442449242 0.5 L 171.1907442449242 3.5 L 178.1907442449242 0 L 171.1907442449242 -3.5 L 171.1907442449242 -0.5 L 136.6129502474621 -0.5 Z"/><text text-anchor="middle" pointer-events="none" font-size="8px" fill="#000000" x="105.5953721224621" y="3" transform="rotate(180 105.5953721224621 0)" font-family="Helvetica Neue, Helvetica, Arial, sans-serif">has_screenplay</text></g><g class="relationship" transform="translate(-92.75415124484867 53.26040899146799) rotate(486.5965559377351)"><path class="b-outline" fill="#C990C0" stroke="none" d="M 40 0.5 L 81.65071155372719 0.5 L 81.65071155372719 -0.5 L 40 -0.5 Z M 131.6819615537272 0.5 L 173.33267310745438 0.5 L 173.33267310745438 3.5 L 180.33267310745438 0 L 173.33267310745438 -3.5 L 173.33267310745438 -0.5 L 131.6819615537272 -0.5 Z"/><text text-anchor="middle" pointer-events="none" font-size="8px" fill="#000000" x="106.66633655372719" y="3" transform="rotate(180 106.66633655372719 0)" font-family="Helvetica Neue, Helvetica, Arial, sans-serif">has_product</text></g><g class="relationship" transform="translate(-278.32850925707885 129.9151737266693) rotate(337.5560633449427)"><path class="b-outline" fill="#DA7194" stroke="none" d="M 40 0.5 L 76.10046223574827 0.5 L 76.10046223574827 -0.5 L 40 -0.5 Z M 117.68249348574827 0.5 L 153.78295572149653 0.5 L 153.78295572149653 3.5 L 160.78295572149653 0 L 153.78295572149653 -3.5 L 153.78295572149653 -0.5 L 117.68249348574827 -0.5 Z"/><text text-anchor="middle" pointer-events="none" font-size="8px" fill="#000000" x="96.89147786074827" y="3" font-family="Helvetica Neue, Helvetica, Arial, sans-serif">related_to</text></g><g class="relationship" transform="translate(-92.75415124484867 53.26040899146799) rotate(405.3543152952973)"><path class="b-outline" fill="#C990C0" stroke="none" d="M 40 0.5 L 76.71207535504757 0.5 L 76.71207535504757 -0.5 L 40 -0.5 Z M 131.19254410504757 0.5 L 167.90461946009515 0.5 L 167.90461946009515 3.5 L 174.90461946009515 0 L 167.90461946009515 -3.5 L 167.90461946009515 -0.5 L 131.19254410504757 -0.5 Z"/><text text-anchor="middle" pointer-events="none" font-size="8px" fill="#000000" x="103.95230973004757" y="3" font-family="Helvetica Neue, Helvetica, Arial, sans-serif">beMonasebat</text></g><g class="relationship" transform="translate(-30.323938096656832 249.11051378458575) rotate(252.31952438412668)"><path class="b-outline" fill="#ECB5C9" stroke="none" d="M 40 0.5 L 77.8247777092099 0.5 L 77.8247777092099 -0.5 L 40 -0.5 Z M 120.7349339592099 0.5 L 158.5597116684198 0.5 L 158.5597116684198 3.5 L 165.5597116684198 0 L 158.5597116684198 -3.5 L 158.5597116684198 -0.5 L 120.7349339592099 -0.5 Z"/><text text-anchor="middle" pointer-events="none" font-size="8px" fill="#000000" x="99.2798558342099" y="3" transform="rotate(180 99.2798558342099 0)" font-family="Helvetica Neue, Helvetica, Arial, sans-serif">participate</text></g><g class="relationship" transform="translate(-309.115548156666 33.159757620901374) rotate(365.30772204095916)"><path class="b-outline" fill="#DA7194" stroke="none" d="M 40 0.5 L 84.3555331687307 0.5 L 84.3555331687307 -0.5 L 40 -0.5 Z M 125.9375644187307 0.5 L 170.2930975874614 0.5 L 170.2930975874614 3.5 L 177.2930975874614 0 L 170.2930975874614 -3.5 L 170.2930975874614 -0.5 L 125.9375644187307 -0.5 Z"/><text text-anchor="middle" pointer-events="none" font-size="8px" fill="#000000" x="105.1465487937307" y="3" font-family="Helvetica Neue, Helvetica, Arial, sans-serif">related_to</text></g><g class="relationship" transform="translate(-92.75415124484867 53.26040899146799) rotate(245.52781436764593)"><path class="b-outline" fill="#C990C0" stroke="none" d="M 40 0.5 L 76.35023943081376 0.5 L 76.35023943081376 -0.5 L 40 -0.5 Z M 138.38539568081376 0.5 L 174.73563511162752 0.5 L 174.73563511162752 3.5 L 181.73563511162752 0 L 174.73563511162752 -3.5 L 174.73563511162752 -0.5 L 138.38539568081376 -0.5 Z"/><text text-anchor="middle" pointer-events="none" font-size="8px" fill="#000000" x="107.36781755581376" y="3" transform="rotate(180 107.36781755581376 0)" font-family="Helvetica Neue, Helvetica, Arial, sans-serif">has_screenplay</text></g><g class="relationship" transform="translate(-92.75415124484867 53.26040899146799) rotate(458.4324028359914)"><path class="b-outline" fill="#C990C0" stroke="none" d="M 40 0.5 L 82.015806178293 0.5 L 82.015806178293 -0.5 L 40 -0.5 Z M 132.04705617829302 0.5 L 174.062862356586 0.5 L 174.062862356586 3.5 L 181.062862356586 0 L 174.062862356586 -3.5 L 174.062862356586 -0.5 L 132.04705617829302 -0.5 Z"/><text text-anchor="middle" pointer-events="none" font-size="8px" fill="#000000" x="107.031431178293" y="3" transform="rotate(180 107.031431178293 0)" font-family="Helvetica Neue, Helvetica, Arial, sans-serif">has_product</text></g><g class="relationship" transform="translate(-92.75415124484867 53.26040899146799) rotate(379.6597128383042)"><path class="b-outline" fill="#604A0E" stroke="none" d="M 40 0.5 L 70.91374389027932 0.5 L 70.91374389027932 -0.5 L 40 -0.5 Z M 121.83561889027932 0.5 L 152.74936278055864 0.5 L 152.74936278055864 3.5 L 159.74936278055864 0 L 152.74936278055864 -3.5 L 152.74936278055864 -0.5 L 121.83561889027932 -0.5 Z"/><text text-anchor="middle" pointer-events="none" font-size="8px" fill="#000000" x="96.37468139027932" y="3" font-family="Helvetica Neue, Helvetica, Arial, sans-serif">has_location</text></g><g class="relationship" transform="translate(-92.75415124484867 53.26040899146799) rotate(277.5197042413806)"><path class="b-outline" fill="#C990C0" stroke="none" d="M 40 0.5 L 76.3724942632542 0.5 L 76.3724942632542 -0.5 L 40 -0.5 Z M 138.4076505132542 0.5 L 174.7801447765084 0.5 L 174.7801447765084 3.5 L 181.7801447765084 0 L 174.7801447765084 -3.5 L 174.7801447765084 -0.5 L 138.4076505132542 -0.5 Z"/><text text-anchor="middle" pointer-events="none" font-size="8px" fill="#000000" x="107.3900723882542" y="3" font-family="Helvetica Neue, Helvetica, Arial, sans-serif">has_screenplay</text></g><g class="relationship" transform="translate(111.83125415337547 10.480830644724023) rotate(528.1894113594324)"><path class="b-outline" fill="#ECB5C9" stroke="none" d="M 40 0.5 L 79.55004187574556 0.5 L 79.55004187574556 -0.5 L 40 -0.5 Z M 122.46019812574556 0.5 L 162.01024000149113 0.5 L 162.01024000149113 3.5 L 169.01024000149113 0 L 162.01024000149113 -3.5 L 162.01024000149113 -0.5 L 122.46019812574556 -0.5 Z"/><text text-anchor="middle" pointer-events="none" font-size="8px" fill="#000000" x="101.00512000074556" y="3" transform="rotate(180 101.00512000074556 0)" font-family="Helvetica Neue, Helvetica, Arial, sans-serif">participate</text></g></g><g class="layer nodes"><g class="node" aria-label="graph-node39" transform="translate(46.672948882535024,-92.52633497931166)"><circle class="b-outline" cx="0" cy="0" r="40" fill="#D9C8AE" stroke="#c0a378" stroke-width="2px"/><text class="caption" text-anchor="middle" pointer-events="none" x="0" y="5" font-size="10px" fill="#2A2C34" font-family="Helvetica Neue, Helvetica, Arial, sans-serif"> مراسم اختتامیه</text></g><g class="node" aria-label="graph-node58" transform="translate(-276.75228870751164,-64.0080278721012)"><circle class="b-outline" cx="0" cy="0" r="40" fill="#F79767" stroke="#f36924" stroke-width="2px"/><text class="caption" text-anchor="middle" pointer-events="none" x="0" y="0" font-size="10px" fill="#FFFFFF" font-family="Helvetica Neue, Helvetica, Arial, sans-serif"> نمایشنامه سفر به اقلیـم</text><text class="caption" text-anchor="middle" pointer-events="none" x="0" y="10" font-size="10px" fill="#FFFFFF" font-family="Helvetica Neue, Helvetica, Arial, sans-serif"> آفتاب</text></g><g class="node" aria-label="graph-node50" transform="translate(-224.11133876906857,230.15522554753124)"><circle class="b-outline" cx="0" cy="0" r="40" fill="#ECB5C9" stroke="#da7298" stroke-width="2px"/><text class="caption" text-anchor="middle" pointer-events="none" x="0" y="5" font-size="10px" fill="#2A2C34" font-family="Helvetica Neue, Helvetica, Arial, sans-serif"> صنایع دستی</text></g><g class="node" aria-label="graph-node36" transform="translate(-278.32850925707885,129.9151737266693)"><circle class="b-outline" cx="0" cy="0" r="40" fill="#FFC454" stroke="#d7a013" stroke-width="2px"/><text class="caption" text-anchor="middle" pointer-events="none" x="0" y="5" font-size="10px" fill="#2A2C34" font-family="Helvetica Neue, Helvetica, Arial, sans-serif"> عکس شماره 2</text></g><g class="node" aria-label="graph-node46" transform="translate(58.26374385679054,206.15773017257501)"><circle class="b-outline" cx="0" cy="0" r="40" fill="#8DCC93" stroke="#5db665" stroke-width="2px"/><text class="caption" text-anchor="middle" pointer-events="none" x="0" y="-5" font-size="10px" fill="#2A2C34" font-family="Helvetica Neue, Helvetica, Arial, sans-serif"> میلاد حضرت امام</text><text class="caption" text-anchor="middle" pointer-events="none" x="0" y="5" font-size="10px" fill="#2A2C34" font-family="Helvetica Neue, Helvetica, Arial, sans-serif"> علی بن موسی</text><text class="caption" text-anchor="middle" pointer-events="none" x="0" y="15" font-size="10px" fill="#2A2C34" font-family="Helvetica Neue, Helvetica, Arial, sans-serif"> الرضا(علیه السلام)</text></g><g class="node" aria-label="graph-node44" transform="translate(-30.323938096656832,249.11051378458575)"><circle class="b-outline" cx="0" cy="0" r="40" fill="#C990C0" stroke="#b261a5" stroke-width="2px"/><text class="caption" text-anchor="middle" pointer-events="none" x="0" y="5" font-size="10px" fill="#FFFFFF" font-family="Helvetica Neue, Helvetica, Arial, sans-serif"> محسن‌ کاهانی</text></g><g class="node" aria-label="graph-node35" transform="translate(-309.115548156666,33.159757620901374)"><circle class="b-outline" cx="0" cy="0" r="40" fill="#FFC454" stroke="#d7a013" stroke-width="2px"/><text class="caption" text-anchor="middle" pointer-events="none" x="0" y="5" font-size="10px" fill="#2A2C34" font-family="Helvetica Neue, Helvetica, Arial, sans-serif"> عکس شماره 1</text></g><g class="node" aria-label="graph-node59" transform="translate(-184.60845983320525,-148.55504599677565)"><circle class="b-outline" cx="0" cy="0" r="40" fill="#F79767" stroke="#f36924" stroke-width="2px"/><text class="caption" text-anchor="middle" pointer-events="none" x="0" y="0" font-size="10px" fill="#FFFFFF" font-family="Helvetica Neue, Helvetica, Arial, sans-serif"> نمایشنامه شصت دقیقه</text><text class="caption" text-anchor="middle" pointer-events="none" x="0" y="10" font-size="10px" fill="#FFFFFF" font-family="Helvetica Neue, Helvetica, Arial, sans-serif"> مانـده به وقت بارانی</text></g><g class="node" aria-label="graph-node47" transform="translate(-125.17135639266726,271.9334844344478)"><circle class="b-outline" cx="0" cy="0" r="40" fill="#ECB5C9" stroke="#da7298" stroke-width="2px"/><text class="caption" text-anchor="middle" pointer-events="none" x="0" y="5" font-size="10px" fill="#2A2C34" font-family="Helvetica Neue, Helvetica, Arial, sans-serif"> نمایش</text></g><g class="node" aria-label="graph-node37" transform="translate(95.3512895334024,120.4627235413337)"><circle class="b-outline" cx="0" cy="0" r="40" fill="#57C7E3" stroke="#23b3d7" stroke-width="2px"/><text class="caption" text-anchor="middle" pointer-events="none" x="0" y="5" font-size="10px" fill="#2A2C34" font-family="Helvetica Neue, Helvetica, Arial, sans-serif"> مشهد</text></g><g class="node" aria-label="graph-node53" transform="translate(-63.730416605712264,-166.61240752909697)"><circle class="b-outline" cx="0" cy="0" r="40" fill="#F79767" stroke="#f36924" stroke-width="2px"/><text class="caption" text-anchor="middle" pointer-events="none" x="0" y="0" font-size="10px" fill="#FFFFFF" font-family="Helvetica Neue, Helvetica, Arial, sans-serif"> نمایشنامه بـه روایت</text><text class="caption" text-anchor="middle" pointer-events="none" x="0" y="10" font-size="10px" fill="#FFFFFF" font-family="Helvetica Neue, Helvetica, Arial, sans-serif"> خورشیـد</text></g><g class="node" aria-label="graph-node45" transform="translate(111.83125415337547,10.480830644724023)"><circle class="b-outline" cx="0" cy="0" r="40" fill="#569480" stroke="#447666" stroke-width="2px"/><text class="caption" text-anchor="middle" pointer-events="none" x="0" y="5" font-size="10px" fill="#FFFFFF" font-family="Helvetica Neue, Helvetica, Arial, sans-serif"> بنیاد امام رضا</text></g><g class="node" aria-label="graph-node26" transform="translate(-92.75415124484867,53.26040899146799)"><circle class="b-outline" cx="0" cy="0" r="40" fill="#F16667" stroke="#eb2728" stroke-width="2px"/><text class="caption" text-anchor="middle" pointer-events="none" x="0" y="5" font-size="10px" fill="#FFFFFF" font-family="Helvetica Neue, Helvetica, Arial, sans-serif"> تاتر تک بازیگر</text></g></g></svg>