<svg xmlns="http://www.w3.org/2000/svg" width="1180.9332275390625" height="1019.4732666015625" viewBox="-451.9961242675781 -516.385009765625 1180.9332275390625 1019.4732666015625"><title>Neo4j Graph Visualization</title><desc>Created using Neo4j (http://www.neo4j.com/)</desc><g class="layer relationships"><g class="relationship" transform="translate(-209.17662955202726 83.959378120704) rotate(338.6027299869344)"><path class="b-outline" fill="#ECB5C9" stroke="none" d="M 40 0.5 L 225.77138040694643 0.5 L 225.77138040694643 -0.5 L 40 -0.5 Z M 268.68153665694643 0.5 L 454.45291706389287 0.5 L 454.45291706389287 3.5 L 461.45291706389287 0 L 454.45291706389287 -3.5 L 454.45291706389287 -0.5 L 268.68153665694643 -0.5 Z"/><text text-anchor="middle" pointer-events="none" font-size="8px" fill="#000000" x="247.22645853194643" y="3" font-family="Helvetica Neue, Helvetica, Arial, sans-serif">participate</text></g><g class="relationship" transform="translate(-209.17662955202726 83.959378120704) rotate(391.3545692818299)"><path class="b-outline" fill="#ECB5C9" stroke="none" d="M 40 0.5 L 151.48748908204587 0.5 L 151.48748908204587 -0.5 L 40 -0.5 Z M 194.39764533204587 0.5 L 305.88513441409174 0.5 L 305.88513441409174 3.5 L 312.88513441409174 0 L 305.88513441409174 -3.5 L 305.88513441409174 -0.5 L 194.39764533204587 -0.5 Z"/><text text-anchor="middle" pointer-events="none" font-size="8px" fill="#000000" x="172.94256720704587" y="3" font-family="Helvetica Neue, Helvetica, Arial, sans-serif">participate</text></g><g class="relationship" transform="translate(-209.17662955202726 83.959378120704) rotate(370.96245117409177)"><path class="b-outline" fill="#ECB5C9" stroke="none" d="M 40 0.5 L 160.0161161145006 0.5 L 160.0161161145006 -0.5 L 40 -0.5 Z M 202.9262723645006 0.5 L 322.9423884790012 0.5 L 322.9423884790012 3.5 L 329.9423884790012 0 L 322.9423884790012 -3.5 L 322.9423884790012 -0.5 L 202.9262723645006 -0.5 Z"/><text text-anchor="middle" pointer-events="none" font-size="8px" fill="#000000" x="181.4711942395006" y="3" font-family="Helvetica Neue, Helvetica, Arial, sans-serif">participate</text></g><g class="relationship" transform="translate(-209.17662955202726 83.959378120704) rotate(368.6640030379193)"><path class="b-outline" fill="#ECB5C9" stroke="none" d="M 40 0.5 L 223.249284713917 0.5 L 223.249284713917 -0.5 L 40 -0.5 Z M 266.159440963917 0.5 L 449.408725677834 0.5 L 449.408725677834 3.5 L 456.408725677834 0 L 449.408725677834 -3.5 L 449.408725677834 -0.5 L 266.159440963917 -0.5 Z"/><text text-anchor="middle" pointer-events="none" font-size="8px" fill="#000000" x="244.704362838917" y="3" font-family="Helvetica Neue, Helvetica, Arial, sans-serif">participate</text></g><g class="relationship" transform="translate(-209.17662955202726 83.959378120704) rotate(299.69758203336426)"><path class="b-outline" fill="#ECB5C9" stroke="none" d="M 40 0.5 L 295.2790918761849 0.5 L 295.2790918761849 -0.5 L 40 -0.5 Z M 338.1892481261849 0.5 L 593.4683400023698 0.5 L 593.4683400023698 3.5 L 600.4683400023698 0 L 593.4683400023698 -3.5 L 593.4683400023698 -0.5 L 338.1892481261849 -0.5 Z"/><text text-anchor="middle" pointer-events="none" font-size="8px" fill="#000000" x="316.7341700011849" y="3" font-family="Helvetica Neue, Helvetica, Arial, sans-serif">participate</text></g><g class="relationship" transform="translate(-209.17662955202726 83.959378120704) rotate(304.7106974543364)"><path class="b-outline" fill="#ECB5C9" stroke="none" d="M 40 0.5 L 68.52756467854529 0.5 L 68.52756467854529 -0.5 L 40 -0.5 Z M 111.43772092854529 0.5 L 139.96528560709058 0.5 L 139.96528560709058 3.5 L 146.96528560709058 0 L 139.96528560709058 -3.5 L 139.96528560709058 -0.5 L 111.43772092854529 -0.5 Z"/><text text-anchor="middle" pointer-events="none" font-size="8px" fill="#000000" x="89.98264280354529" y="3" font-family="Helvetica Neue, Helvetica, Arial, sans-serif">participate</text></g><g class="relationship" transform="translate(-209.17662955202726 83.959378120704) rotate(266.2182423801609)"><path class="b-outline" fill="#ECB5C9" stroke="none" d="M 40 0.5 L 75.03888532725799 0.5 L 75.03888532725799 -0.5 L 40 -0.5 Z M 117.94904157725799 0.5 L 152.98792690451597 0.5 L 152.98792690451597 3.5 L 159.98792690451597 0 L 152.98792690451597 -3.5 L 152.98792690451597 -0.5 L 117.94904157725799 -0.5 Z"/><text text-anchor="middle" pointer-events="none" font-size="8px" fill="#000000" x="96.49396345225799" y="3" transform="rotate(180 96.49396345225799 0)" font-family="Helvetica Neue, Helvetica, Arial, sans-serif">participate</text></g><g class="relationship" transform="translate(-209.17662955202726 83.959378120704) rotate(478.3389341461451)"><path class="b-outline" fill="#ECB5C9" stroke="none" d="M 40 0.5 L 73.49566991437554 0.5 L 73.49566991437554 -0.5 L 40 -0.5 Z M 116.40582616437554 0.5 L 149.90149607875108 0.5 L 149.90149607875108 3.5 L 156.90149607875108 0 L 149.90149607875108 -3.5 L 149.90149607875108 -0.5 L 116.40582616437554 -0.5 Z"/><text text-anchor="middle" pointer-events="none" font-size="8px" fill="#000000" x="94.95074803937554" y="3" transform="rotate(180 94.95074803937554 0)" font-family="Helvetica Neue, Helvetica, Arial, sans-serif">participate</text></g><g class="relationship" transform="translate(-209.17662955202726 83.959378120704) rotate(438.2983069124123)"><path class="b-outline" fill="#ECB5C9" stroke="none" d="M 40 0.5 L 61.10246269666064 0.5 L 61.10246269666064 -0.5 L 40 -0.5 Z M 104.01261894666064 0.5 L 125.11508164332128 0.5 L 125.11508164332128 3.5 L 132.11508164332128 0 L 125.11508164332128 -3.5 L 125.11508164332128 -0.5 L 104.01261894666064 -0.5 Z"/><text text-anchor="middle" pointer-events="none" font-size="8px" fill="#000000" x="82.55754082166064" y="3" font-family="Helvetica Neue, Helvetica, Arial, sans-serif">participate</text></g><g class="relationship" transform="translate(-209.17662955202726 83.959378120704) rotate(229.4712960674998)"><path class="b-outline" fill="#ECB5C9" stroke="none" d="M 40 0.5 L 78.02018910027846 0.5 L 78.02018910027846 -0.5 L 40 -0.5 Z M 120.93034535027846 0.5 L 158.95053445055692 0.5 L 158.95053445055692 3.5 L 165.95053445055692 0 L 158.95053445055692 -3.5 L 158.95053445055692 -0.5 L 120.93034535027846 -0.5 Z"/><text text-anchor="middle" pointer-events="none" font-size="8px" fill="#000000" x="99.47526722527846" y="3" transform="rotate(180 99.47526722527846 0)" font-family="Helvetica Neue, Helvetica, Arial, sans-serif">participate</text></g><g class="relationship" transform="translate(-209.17662955202726 83.959378120704) rotate(515.8415395579475)"><path class="b-outline" fill="#ECB5C9" stroke="none" d="M 40 0.5 L 75.1053928365642 0.5 L 75.1053928365642 -0.5 L 40 -0.5 Z M 118.0155490865642 0.5 L 153.1209419231284 0.5 L 153.1209419231284 3.5 L 160.1209419231284 0 L 153.1209419231284 -3.5 L 153.1209419231284 -0.5 L 118.0155490865642 -0.5 Z"/><text text-anchor="middle" pointer-events="none" font-size="8px" fill="#000000" x="96.5604709615642" y="3" transform="rotate(180 96.5604709615642 0)" font-family="Helvetica Neue, Helvetica, Arial, sans-serif">participate</text></g><g class="relationship" transform="translate(-209.17662955202726 83.959378120704) rotate(193.08587411702666)"><path class="b-outline" fill="#ECB5C9" stroke="none" d="M 40 0.5 L 77.10498778324414 0.5 L 77.10498778324414 -0.5 L 40 -0.5 Z M 120.01514403324414 0.5 L 157.12013181648828 0.5 L 157.12013181648828 3.5 L 164.12013181648828 0 L 157.12013181648828 -3.5 L 157.12013181648828 -0.5 L 120.01514403324414 -0.5 Z"/><text text-anchor="middle" pointer-events="none" font-size="8px" fill="#000000" x="98.56006590824414" y="3" transform="rotate(180 98.56006590824414 0)" font-family="Helvetica Neue, Helvetica, Arial, sans-serif">participate</text></g><g class="relationship" transform="translate(257.712742680685 -98.98690396240173) rotate(395.9635791089878)"><path class="b-outline" fill="#604A0E" stroke="none" d="M 40 0.5 L 207.80599849809886 0.5 L 207.80599849809886 -0.5 L 40 -0.5 Z M 258.72787349809886 0.5 L 426.5338719961977 0.5 L 426.5338719961977 3.5 L 433.5338719961977 0 L 426.5338719961977 -3.5 L 426.5338719961977 -0.5 L 258.72787349809886 -0.5 Z"/><text text-anchor="middle" pointer-events="none" font-size="8px" fill="#000000" x="233.26693599809886" y="3" font-family="Helvetica Neue, Helvetica, Arial, sans-serif">has_location</text></g><g class="relationship" transform="translate(257.712742680685 -98.98690396240173) rotate(528.3122500717108)"><path class="b-outline" fill="#DA7194" stroke="none" d="M 40 0.5 L 84.24108229246613 0.5 L 84.24108229246613 -0.5 L 40 -0.5 Z M 145.38561354246613 0.5 L 189.62669583493226 0.5 L 189.62669583493226 3.5 L 196.62669583493226 0 L 189.62669583493226 -3.5 L 189.62669583493226 -0.5 L 145.38561354246613 -0.5 Z"/><text text-anchor="middle" pointer-events="none" font-size="8px" fill="#000000" x="114.81334791746613" y="3" transform="rotate(180 114.81334791746613 0)" font-family="Helvetica Neue, Helvetica, Arial, sans-serif">has_Participant</text></g><g class="relationship" transform="translate(257.712742680685 -98.98690396240173) rotate(198.24831064012045)"><path class="b-outline" fill="#DA7194" stroke="none" d="M 40 0.5 L 42.82594085697161 0.5 L 42.82594085697161 -0.5 L 40 -0.5 Z M 103.97047210697161 0.5 L 106.79641296394323 0.5 L 106.79641296394323 3.5 L 113.79641296394323 0 L 106.79641296394323 -3.5 L 106.79641296394323 -0.5 L 103.97047210697161 -0.5 Z"/><text text-anchor="middle" pointer-events="none" font-size="8px" fill="#000000" x="73.39820648197161" y="3" transform="rotate(180 73.39820648197161 0)" font-family="Helvetica Neue, Helvetica, Arial, sans-serif">has_Participant</text></g><g class="relationship" transform="translate(257.712742680685 -98.98690396240173) rotate(375.3014750566178)"><path class="b-outline" fill="#569480" stroke="none" d="M 40 0.5 L 188.8157192926339 0.5 L 188.8157192926339 -0.5 L 40 -0.5 Z M 229.9563442926339 0.5 L 378.7720635852678 0.5 L 378.7720635852678 3.5 L 385.7720635852678 0 L 378.7720635852678 -3.5 L 378.7720635852678 -0.5 L 229.9563442926339 -0.5 Z"/><text text-anchor="middle" pointer-events="none" font-size="8px" fill="#000000" x="209.3860317926339" y="3" font-family="Helvetica Neue, Helvetica, Arial, sans-serif">top_event</text></g><g class="relationship" transform="translate(257.712742680685 -98.98690396240173) rotate(285.46399592596913)"><path class="b-outline" fill="#C990C0" stroke="none" d="M 40 0.5 L 80.6577068810411 0.5 L 80.6577068810411 -0.5 L 40 -0.5 Z M 142.6928631310411 0.5 L 183.3505700120822 0.5 L 183.3505700120822 3.5 L 190.3505700120822 0 L 183.3505700120822 -3.5 L 183.3505700120822 -0.5 L 142.6928631310411 -0.5 Z"/><text text-anchor="middle" pointer-events="none" font-size="8px" fill="#000000" x="111.6752850060411" y="3" font-family="Helvetica Neue, Helvetica, Arial, sans-serif">has_screenplay</text></g><g class="relationship" transform="translate(257.712742680685 -98.98690396240173) rotate(505.24992446717926)"><path class="b-outline" fill="#C990C0" stroke="none" d="M 40 0.5 L 41.985062832260226 0.5 L 41.985062832260226 -0.5 L 40 -0.5 Z M 80.44600033226023 0.5 L 82.43106316452045 0.5 L 82.43106316452045 3.5 L 89.43106316452045 0 L 82.43106316452045 -3.5 L 82.43106316452045 -0.5 L 80.44600033226023 -0.5 Z"/><text text-anchor="middle" pointer-events="none" font-size="8px" fill="#000000" x="61.215531582260226" y="3" transform="rotate(180 61.215531582260226 0)" font-family="Helvetica Neue, Helvetica, Arial, sans-serif">has_pr…</text></g><g class="relationship" transform="translate(257.712742680685 -98.98690396240173) rotate(328.4746066475094)"><path class="b-outline" fill="#C990C0" stroke="none" d="M 40 0.5 L 130.5979253202541 0.5 L 130.5979253202541 -0.5 L 40 -0.5 Z M 180.6291753202541 0.5 L 271.2271006405082 0.5 L 271.2271006405082 3.5 L 278.2271006405082 0 L 271.2271006405082 -3.5 L 271.2271006405082 -0.5 L 180.6291753202541 -0.5 Z"/><text text-anchor="middle" pointer-events="none" font-size="8px" fill="#000000" x="155.6135503202541" y="3" font-family="Helvetica Neue, Helvetica, Arial, sans-serif">has_product</text></g><g class="relationship" transform="translate(257.712742680685 -98.98690396240173) rotate(251.25869088145583)"><path class="b-outline" fill="#C990C0" stroke="none" d="M 40 0.5 L 62.592806428440696 0.5 L 62.592806428440696 -0.5 L 40 -0.5 Z M 112.6240564284407 0.5 L 135.2168628568814 0.5 L 135.2168628568814 3.5 L 142.2168628568814 0 L 135.2168628568814 -3.5 L 135.2168628568814 -0.5 L 112.6240564284407 -0.5 Z"/><text text-anchor="middle" pointer-events="none" font-size="8px" fill="#000000" x="87.6084314284407" y="3" transform="rotate(180 87.6084314284407 0)" font-family="Helvetica Neue, Helvetica, Arial, sans-serif">has_product</text></g><g class="relationship" transform="translate(257.712742680685 -98.98690396240173) rotate(490.4649708264469)"><path class="b-outline" fill="#C990C0" stroke="none" d="M 40 0.5 L 291.3986548645522 0.5 L 291.3986548645522 -0.5 L 40 -0.5 Z M 345.8791236145522 0.5 L 597.2777784791044 0.5 L 597.2777784791044 3.5 L 604.2777784791044 0 L 597.2777784791044 -3.5 L 597.2777784791044 -0.5 L 345.8791236145522 -0.5 Z"/><text text-anchor="middle" pointer-events="none" font-size="8px" fill="#000000" x="318.6388892395522" y="3" transform="rotate(180 318.6388892395522 0)" font-family="Helvetica Neue, Helvetica, Arial, sans-serif">beMonasebat</text></g><g class="relationship" transform="translate(257.712742680685 -98.98690396240173) rotate(208.49247343443744)"><path class="b-outline" fill="#C990C0" stroke="none" d="M 40 0.5 L 203.08080234650774 0.5 L 203.08080234650774 -0.5 L 40 -0.5 Z M 265.11595859650777 0.5 L 428.1967609430155 0.5 L 428.1967609430155 3.5 L 435.1967609430155 0 L 428.1967609430155 -3.5 L 428.1967609430155 -0.5 L 265.11595859650777 -0.5 Z"/><text text-anchor="middle" pointer-events="none" font-size="8px" fill="#000000" x="234.09838047150774" y="3" transform="rotate(180 234.09838047150774 0)" font-family="Helvetica Neue, Helvetica, Arial, sans-serif">has_screenplay</text></g><g class="relationship" transform="translate(92.17444630456494 267.57704385721746) rotate(441.8936327405511)"><path class="b-outline" fill="#604A0E" stroke="none" d="M 40 0.5 L 67.76112708702249 0.5 L 67.76112708702249 -0.5 L 40 -0.5 Z M 118.68300208702249 0.5 L 146.44412917404497 0.5 L 146.44412917404497 3.5 L 153.44412917404497 0 L 146.44412917404497 -3.5 L 146.44412917404497 -0.5 L 118.68300208702249 -0.5 Z"/><text text-anchor="middle" pointer-events="none" font-size="8px" fill="#000000" x="93.22206458702249" y="3" font-family="Helvetica Neue, Helvetica, Arial, sans-serif">has_location</text></g><g class="relationship" transform="translate(92.17444630456494 267.57704385721746) rotate(258.2659666593389)"><path class="b-outline" fill="#DA7194" stroke="none" d="M 40 0.5 L 128.64241688535057 0.5 L 128.64241688535057 -0.5 L 40 -0.5 Z M 189.78694813535057 0.5 L 278.42936502070114 0.5 L 278.42936502070114 3.5 L 285.42936502070114 0 L 278.42936502070114 -3.5 L 278.42936502070114 -0.5 L 189.78694813535057 -0.5 Z"/><text text-anchor="middle" pointer-events="none" font-size="8px" fill="#000000" x="159.21468251035057" y="3" transform="rotate(180 159.21468251035057 0)" font-family="Helvetica Neue, Helvetica, Arial, sans-serif">has_Participant</text></g><g class="relationship" transform="translate(92.17444630456494 267.57704385721746) rotate(281.42918819070604)"><path class="b-outline" fill="#C990C0" stroke="none" d="M 40 0.5 L 120.84031052378782 0.5 L 120.84031052378782 -0.5 L 40 -0.5 Z M 170.87156052378782 0.5 L 251.71187104757564 0.5 L 251.71187104757564 3.5 L 258.71187104757564 0 L 251.71187104757564 -3.5 L 251.71187104757564 -0.5 L 170.87156052378782 -0.5 Z"/><text text-anchor="middle" pointer-events="none" font-size="8px" fill="#000000" x="145.85593552378782" y="3" font-family="Helvetica Neue, Helvetica, Arial, sans-serif">has_product</text></g><g class="relationship" transform="translate(92.17444630456494 267.57704385721746) rotate(400.0857176546316)"><path class="b-outline" fill="#C990C0" stroke="none" d="M 40 0.5 L 43.562967839360226 0.5 L 43.562967839360226 -0.5 L 40 -0.5 Z M 93.59421783936023 0.5 L 97.15718567872045 0.5 L 97.15718567872045 3.5 L 104.15718567872045 0 L 97.15718567872045 -3.5 L 97.15718567872045 -0.5 L 93.59421783936023 -0.5 Z"/><text text-anchor="middle" pointer-events="none" font-size="8px" fill="#000000" x="68.57859283936023" y="3" font-family="Helvetica Neue, Helvetica, Arial, sans-serif">has_product</text></g><g class="relationship" transform="translate(92.17444630456494 267.57704385721746) rotate(369.49490099982677)"><path class="b-outline" fill="#C990C0" stroke="none" d="M 40 0.5 L 192.54570391138304 0.5 L 192.54570391138304 -0.5 L 40 -0.5 Z M 242.57695391138304 0.5 L 395.1226578227661 0.5 L 395.1226578227661 3.5 L 402.1226578227661 0 L 395.1226578227661 -3.5 L 395.1226578227661 -0.5 L 242.57695391138304 -0.5 Z"/><text text-anchor="middle" pointer-events="none" font-size="8px" fill="#000000" x="217.56132891138304" y="3" font-family="Helvetica Neue, Helvetica, Arial, sans-serif">has_product</text></g><g class="relationship" transform="translate(92.17444630456494 267.57704385721746) rotate(207.96967254918627)"><path class="b-outline" fill="#C990C0" stroke="none" d="M 40 0.5 L 53.088835098720054 0.5 L 53.088835098720054 -0.5 L 40 -0.5 Z M 115.12399134872005 0.5 L 128.2128264474401 0.5 L 128.2128264474401 3.5 L 135.2128264474401 0 L 128.2128264474401 -3.5 L 128.2128264474401 -0.5 L 115.12399134872005 -0.5 Z"/><text text-anchor="middle" pointer-events="none" font-size="8px" fill="#000000" x="84.10641322372005" y="3" transform="rotate(180 84.10641322372005 0)" font-family="Helvetica Neue, Helvetica, Arial, sans-serif">has_screenplay</text></g><g class="relationship" transform="translate(92.17444630456494 267.57704385721746) rotate(481.1873346779612)"><path class="b-outline" fill="#C990C0" stroke="none" d="M 40 0.5 L 60.827337730574214 0.5 L 60.827337730574214 -0.5 L 40 -0.5 Z M 122.86249398057421 0.5 L 143.68983171114843 0.5 L 143.68983171114843 3.5 L 150.68983171114843 0 L 143.68983171114843 -3.5 L 143.68983171114843 -0.5 L 122.86249398057421 -0.5 Z"/><text text-anchor="middle" pointer-events="none" font-size="8px" fill="#000000" x="91.84491585557421" y="3" transform="rotate(180 91.84491585557421 0)" font-family="Helvetica Neue, Helvetica, Arial, sans-serif">has_screenplay</text></g><g class="relationship" transform="translate(92.17444630456494 267.57704385721746) rotate(513.9250082651914)"><path class="b-outline" fill="#C990C0" stroke="none" d="M 40 0.5 L 109.86406526227779 0.5 L 109.86406526227779 -0.5 L 40 -0.5 Z M 164.3445340122778 0.5 L 234.20859927455558 0.5 L 234.20859927455558 3.5 L 241.20859927455558 0 L 234.20859927455558 -3.5 L 234.20859927455558 -0.5 L 164.3445340122778 -0.5 Z"/><text text-anchor="middle" pointer-events="none" font-size="8px" fill="#000000" x="137.1042996372778" y="3" transform="rotate(180 137.1042996372778 0)" font-family="Helvetica Neue, Helvetica, Arial, sans-serif">beMonasebat</text></g><g class="relationship" transform="translate(154.01505741353944 154.3097108324545) rotate(362.91491847593863)"><path class="b-outline" fill="#604A0E" stroke="none" d="M 40 0.5 L 214.84024771615796 0.5 L 214.84024771615796 -0.5 L 40 -0.5 Z M 265.76212271615793 0.5 L 440.6023704323159 0.5 L 440.6023704323159 3.5 L 447.6023704323159 0 L 440.6023704323159 -3.5 L 440.6023704323159 -0.5 L 265.76212271615793 -0.5 Z"/><text text-anchor="middle" pointer-events="none" font-size="8px" fill="#000000" x="240.30118521615796" y="3" font-family="Helvetica Neue, Helvetica, Arial, sans-serif">has_location</text></g><g class="relationship" transform="translate(154.01505741353944 154.3097108324545) rotate(262.00052055520655)"><path class="b-outline" fill="#DA7194" stroke="none" d="M 40 0.5 L 118.1367184456864 0.5 L 118.1367184456864 -0.5 L 40 -0.5 Z M 179.2812496956864 0.5 L 257.4179681413728 0.5 L 257.4179681413728 3.5 L 264.4179681413728 0 L 257.4179681413728 -3.5 L 257.4179681413728 -0.5 L 179.2812496956864 -0.5 Z"/><text text-anchor="middle" pointer-events="none" font-size="8px" fill="#000000" x="148.7089840706864" y="3" transform="rotate(180 148.7089840706864 0)" font-family="Helvetica Neue, Helvetica, Arial, sans-serif">has_Participant</text></g><g class="relationship" transform="translate(154.01505741353944 154.3097108324545) rotate(269.15465602910183)"><path class="b-outline" fill="#C990C0" stroke="none" d="M 40 0.5 L 61.254739307206535 0.5 L 61.254739307206535 -0.5 L 40 -0.5 Z M 111.28598930720653 0.5 L 132.54072861441307 0.5 L 132.54072861441307 3.5 L 139.54072861441307 0 L 132.54072861441307 -3.5 L 132.54072861441307 -0.5 L 111.28598930720653 -0.5 Z"/><text text-anchor="middle" pointer-events="none" font-size="8px" fill="#000000" x="86.27036430720653" y="3" transform="rotate(180 86.27036430720653 0)" font-family="Helvetica Neue, Helvetica, Arial, sans-serif">has_product</text></g><g class="relationship" transform="translate(154.01505741353944 154.3097108324545) rotate(312.6078848096511)"><path class="b-outline" fill="#C990C0" stroke="none" d="M 40 0.5 L 56.19301932249893 0.5 L 56.19301932249893 -0.5 L 40 -0.5 Z M 106.22426932249893 0.5 L 122.41728864499785 0.5 L 122.41728864499785 3.5 L 129.41728864499785 0 L 122.41728864499785 -3.5 L 122.41728864499785 -0.5 L 106.22426932249893 -0.5 Z"/><text text-anchor="middle" pointer-events="none" font-size="8px" fill="#000000" x="81.20864432249893" y="3" font-family="Helvetica Neue, Helvetica, Arial, sans-serif">has_product</text></g><g class="relationship" transform="translate(154.01505741353944 154.3097108324545) rotate(436.77040411081316)"><path class="b-outline" fill="#C990C0" stroke="none" d="M 40 0.5 L 77.34117404860108 0.5 L 77.34117404860108 -0.5 L 40 -0.5 Z M 127.37242404860108 0.5 L 164.71359809720215 0.5 L 164.71359809720215 3.5 L 171.71359809720215 0 L 164.71359809720215 -3.5 L 164.71359809720215 -0.5 L 127.37242404860108 -0.5 Z"/><text text-anchor="middle" pointer-events="none" font-size="8px" fill="#000000" x="102.35679904860108" y="3" font-family="Helvetica Neue, Helvetica, Arial, sans-serif">has_product</text></g><g class="relationship" transform="translate(154.01505741353944 154.3097108324545) rotate(400.3625924897203)"><path class="b-outline" fill="#C990C0" stroke="none" d="M 40 0.5 L 65.92517331126423 0.5 L 65.92517331126423 -0.5 L 40 -0.5 Z M 127.96032956126423 0.5 L 153.88550287252846 0.5 L 153.88550287252846 3.5 L 160.88550287252846 0 L 153.88550287252846 -3.5 L 153.88550287252846 -0.5 L 127.96032956126423 -0.5 Z"/><text text-anchor="middle" pointer-events="none" font-size="8px" fill="#000000" x="96.94275143626423" y="3" font-family="Helvetica Neue, Helvetica, Arial, sans-serif">has_screenplay</text></g><g class="relationship" transform="translate(154.01505741353944 154.3097108324545) rotate(343.1286324544268)"><path class="b-outline" fill="#C990C0" stroke="none" d="M 40 0.5 L 85.76562404543363 0.5 L 85.76562404543363 -0.5 L 40 -0.5 Z M 147.80078029543364 0.5 L 193.56640434086725 0.5 L 193.56640434086725 3.5 L 200.56640434086725 0 L 193.56640434086725 -3.5 L 193.56640434086725 -0.5 L 147.80078029543364 -0.5 Z"/><text text-anchor="middle" pointer-events="none" font-size="8px" fill="#000000" x="116.78320217043363" y="3" font-family="Helvetica Neue, Helvetica, Arial, sans-serif">has_screenplay</text></g><g class="relationship" transform="translate(154.01505741353944 154.3097108324545) rotate(503.00772557824075)"><path class="b-outline" fill="#C990C0" stroke="none" d="M 40 0.5 L 166.0928117764834 0.5 L 166.0928117764834 -0.5 L 40 -0.5 Z M 220.5732805264834 0.5 L 346.6660923029668 0.5 L 346.6660923029668 3.5 L 353.6660923029668 0 L 346.6660923029668 -3.5 L 346.6660923029668 -0.5 L 220.5732805264834 -0.5 Z"/><text text-anchor="middle" pointer-events="none" font-size="8px" fill="#000000" x="193.3330461514834" y="3" transform="rotate(180 193.3330461514834 0)" font-family="Helvetica Neue, Helvetica, Arial, sans-serif">beMonasebat</text></g><g class="relationship" transform="translate(281.56743898483296 158.73826635114273) rotate(363.2433552363115)"><path class="b-outline" fill="#604A0E" stroke="none" d="M 40 0.5 L 151.03692841526328 0.5 L 151.03692841526328 -0.5 L 40 -0.5 Z M 201.95880341526328 0.5 L 312.99573183052655 0.5 L 312.99573183052655 3.5 L 319.99573183052655 0 L 312.99573183052655 -3.5 L 312.99573183052655 -0.5 L 201.95880341526328 -0.5 Z"/><text text-anchor="middle" pointer-events="none" font-size="8px" fill="#000000" x="176.49786591526328" y="3" font-family="Helvetica Neue, Helvetica, Arial, sans-serif">has_location</text></g><g class="relationship" transform="translate(281.56743898483296 158.73826635114273) rotate(219.38098364015855)"><path class="b-outline" fill="#DA7194" stroke="none" d="M 40 0.5 L 131.2535170136072 0.5 L 131.2535170136072 -0.5 L 40 -0.5 Z M 192.3980482636072 0.5 L 283.6515652772144 0.5 L 283.6515652772144 3.5 L 290.6515652772144 0 L 283.6515652772144 -3.5 L 283.6515652772144 -0.5 L 192.3980482636072 -0.5 Z"/><text text-anchor="middle" pointer-events="none" font-size="8px" fill="#000000" x="161.8257826386072" y="3" transform="rotate(180 161.8257826386072 0)" font-family="Helvetica Neue, Helvetica, Arial, sans-serif">has_Participant</text></g><g class="relationship" transform="translate(281.56743898483296 158.73826635114273) rotate(234.70880636646024)"><path class="b-outline" fill="#C990C0" stroke="none" d="M 40 0.5 L 84.1674147565872 0.5 L 84.1674147565872 -0.5 L 40 -0.5 Z M 134.19866475658722 0.5 L 178.3660795131744 0.5 L 178.3660795131744 3.5 L 185.3660795131744 0 L 178.3660795131744 -3.5 L 178.3660795131744 -0.5 L 134.19866475658722 -0.5 Z"/><text text-anchor="middle" pointer-events="none" font-size="8px" fill="#000000" x="109.1830397565872" y="3" transform="rotate(180 109.1830397565872 0)" font-family="Helvetica Neue, Helvetica, Arial, sans-serif">has_product</text></g><g class="relationship" transform="translate(281.56743898483296 158.73826635114273) rotate(396.3862210016746)"><path class="b-outline" fill="#C990C0" stroke="none" d="M 40 0.5 L 124.69029537016442 0.5 L 124.69029537016442 -0.5 L 40 -0.5 Z M 174.72154537016442 0.5 L 259.41184074032884 0.5 L 259.41184074032884 3.5 L 266.41184074032884 0 L 259.41184074032884 -3.5 L 259.41184074032884 -0.5 L 174.72154537016442 -0.5 Z"/><text text-anchor="middle" pointer-events="none" font-size="8px" fill="#000000" x="149.70592037016442" y="3" font-family="Helvetica Neue, Helvetica, Arial, sans-serif">has_product</text></g><g class="relationship" transform="translate(281.56743898483296 158.73826635114273) rotate(300.2566658831297)"><path class="b-outline" fill="#C990C0" stroke="none" d="M 40 0.5 L 216.98678234053088 0.5 L 216.98678234053088 -0.5 L 40 -0.5 Z M 267.0180323405309 0.5 L 444.00481468106176 0.5 L 444.00481468106176 3.5 L 451.00481468106176 0 L 444.00481468106176 -3.5 L 444.00481468106176 -0.5 L 267.0180323405309 -0.5 Z"/><text text-anchor="middle" pointer-events="none" font-size="8px" fill="#000000" x="242.00240734053088" y="3" font-family="Helvetica Neue, Helvetica, Arial, sans-serif">has_product</text></g><g class="relationship" transform="translate(281.56743898483296 158.73826635114273) rotate(380.178004549046)"><path class="b-outline" fill="#C990C0" stroke="none" d="M 40 0.5 L 180.3549519270126 0.5 L 180.3549519270126 -0.5 L 40 -0.5 Z M 242.3901081770126 0.5 L 382.7450601040252 0.5 L 382.7450601040252 3.5 L 389.7450601040252 0 L 382.7450601040252 -3.5 L 382.7450601040252 -0.5 L 242.3901081770126 -0.5 Z"/><text text-anchor="middle" pointer-events="none" font-size="8px" fill="#000000" x="211.3725300520126" y="3" font-family="Helvetica Neue, Helvetica, Arial, sans-serif">has_screenplay</text></g><g class="relationship" transform="translate(281.56743898483296 158.73826635114273) rotate(512.2595173862283)"><path class="b-outline" fill="#C990C0" stroke="none" d="M 40 0.5 L 218.9476753684966 0.5 L 218.9476753684966 -0.5 L 40 -0.5 Z M 273.42814411849656 0.5 L 452.3758194869932 0.5 L 452.3758194869932 3.5 L 459.3758194869932 0 L 452.3758194869932 -3.5 L 452.3758194869932 -0.5 L 273.42814411849656 -0.5 Z"/><text text-anchor="middle" pointer-events="none" font-size="8px" fill="#000000" x="246.1879097434966" y="3" transform="rotate(180 246.1879097434966 0)" font-family="Helvetica Neue, Helvetica, Arial, sans-serif">beMonasebat</text></g><g class="relationship" transform="translate(108.12548308575373 -472.38499711912186) rotate(410.7199092854505)"><path class="b-outline" fill="#604A0E" stroke="none" d="M 40 0.5 L 391.86595595310945 0.5 L 391.86595595310945 -0.5 L 40 -0.5 Z M 442.78783095310945 0.5 L 794.6537869062189 0.5 L 794.6537869062189 3.5 L 801.6537869062189 0 L 794.6537869062189 -3.5 L 794.6537869062189 -0.5 L 442.78783095310945 -0.5 Z"/><text text-anchor="middle" pointer-events="none" font-size="8px" fill="#000000" x="417.32689345310945" y="3" font-family="Helvetica Neue, Helvetica, Arial, sans-serif">has_location</text></g><g class="relationship" transform="translate(108.12548308575373 -472.38499711912186) rotate(461.03070221258577)"><path class="b-outline" fill="#DA7194" stroke="none" d="M 40 0.5 L 180.55982546808227 0.5 L 180.55982546808227 -0.5 L 40 -0.5 Z M 241.70435671808227 0.5 L 382.26418218616453 0.5 L 382.26418218616453 3.5 L 389.26418218616453 0 L 382.26418218616453 -3.5 L 382.26418218616453 -0.5 L 241.70435671808227 -0.5 Z"/><text text-anchor="middle" pointer-events="none" font-size="8px" fill="#000000" x="211.13209109308227" y="3" transform="rotate(180 211.13209109308227 0)" font-family="Helvetica Neue, Helvetica, Arial, sans-serif">has_Participant</text></g><g class="relationship" transform="translate(108.12548308575373 -472.38499711912186) rotate(444.4767931870622)"><path class="b-outline" fill="#C990C0" stroke="none" d="M 40 0.5 L 196.1140241823608 0.5 L 196.1140241823608 -0.5 L 40 -0.5 Z M 246.1452741823608 0.5 L 402.2592983647216 0.5 L 402.2592983647216 3.5 L 409.2592983647216 0 L 402.2592983647216 -3.5 L 402.2592983647216 -0.5 L 246.1452741823608 -0.5 Z"/><text text-anchor="middle" pointer-events="none" font-size="8px" fill="#000000" x="221.1296491823608" y="3" font-family="Helvetica Neue, Helvetica, Arial, sans-serif">has_product</text></g><g class="relationship" transform="translate(108.12548308575373 -472.38499711912186) rotate(511.3076288119678)"><path class="b-outline" fill="#C990C0" stroke="none" d="M 40 0.5 L 118.2699747696374 0.5 L 118.2699747696374 -0.5 L 40 -0.5 Z M 180.3051310196374 0.5 L 258.5751057892748 0.5 L 258.5751057892748 3.5 L 265.5751057892748 0 L 258.5751057892748 -3.5 L 258.5751057892748 -0.5 L 180.3051310196374 -0.5 Z"/><text text-anchor="middle" pointer-events="none" font-size="8px" fill="#000000" x="149.2875528946374" y="3" transform="rotate(180 149.2875528946374 0)" font-family="Helvetica Neue, Helvetica, Arial, sans-serif">has_screenplay</text></g><g class="relationship" transform="translate(108.12548308575373 -472.38499711912186) rotate(467.2738130639508)"><path class="b-outline" fill="#C990C0" stroke="none" d="M 40 0.5 L 421.4377653599925 0.5 L 421.4377653599925 -0.5 L 40 -0.5 Z M 475.9182341099925 0.5 L 857.355999469985 0.5 L 857.355999469985 3.5 L 864.355999469985 0 L 857.355999469985 -3.5 L 857.355999469985 -0.5 L 475.9182341099925 -0.5 Z"/><text text-anchor="middle" pointer-events="none" font-size="8px" fill="#000000" x="448.6779997349925" y="3" transform="rotate(180 448.6779997349925 0)" font-family="Helvetica Neue, Helvetica, Arial, sans-serif">beMonasebat</text></g><g class="relationship" transform="translate(36.891268976118894 101.93129131852633) rotate(431.54390798683085)"><path class="b-outline" fill="#DA7194" stroke="none" d="M 40 0.5 L 63.022707565626945 0.5 L 63.022707565626945 -0.5 L 40 -0.5 Z M 104.60473881562694 0.5 L 127.62744638125389 0.5 L 127.62744638125389 3.5 L 134.6274463812539 0 L 127.62744638125389 -3.5 L 127.62744638125389 -0.5 L 104.60473881562694 -0.5 Z"/><text text-anchor="middle" pointer-events="none" font-size="8px" fill="#000000" x="83.81372319062694" y="3" font-family="Helvetica Neue, Helvetica, Arial, sans-serif">related_to</text></g><g class="relationship" transform="translate(-58.98389553915957 312.59935203415915) rotate(264.2659536351286)"><path class="b-outline" fill="#57C7E3" stroke="none" d="M 40 0.5 L 97.10027517217029 0.5 L 97.10027517217029 -0.5 L 40 -0.5 Z M 152.02215017217029 0.5 L 209.12242534434057 0.5 L 209.12242534434057 3.5 L 216.12242534434057 0 L 209.12242534434057 -3.5 L 209.12242534434057 -0.5 L 152.02215017217029 -0.5 Z"/><text text-anchor="middle" pointer-events="none" font-size="8px" fill="#000000" x="124.56121267217029" y="3" transform="rotate(180 124.56121267217029 0)" font-family="Helvetica Neue, Helvetica, Arial, sans-serif">has_producer</text></g><g class="relationship" transform="translate(-58.98389553915957 312.59935203415915) rotate(343.4139081491635)"><path class="b-outline" fill="#DA7194" stroke="none" d="M 40 0.5 L 54.56938721210797 0.5 L 54.56938721210797 -0.5 L 40 -0.5 Z M 96.15141846210797 0.5 L 110.72080567421594 0.5 L 110.72080567421594 3.5 L 117.72080567421594 0 L 110.72080567421594 -3.5 L 110.72080567421594 -0.5 L 96.15141846210797 -0.5 Z"/><text text-anchor="middle" pointer-events="none" font-size="8px" fill="#000000" x="75.36040283710797" y="3" font-family="Helvetica Neue, Helvetica, Arial, sans-serif">related_to</text></g><g class="relationship" transform="translate(-84.57334708472236 57.75846690411453) rotate(315.4584995235534)"><path class="b-outline" fill="#ECB5C9" stroke="none" d="M 40 0.5 L 52.6083933919148 0.5 L 52.6083933919148 -0.5 L 40 -0.5 Z M 95.5185496419148 0.5 L 108.1269430338296 0.5 L 108.1269430338296 3.5 L 115.1269430338296 0 L 108.1269430338296 -3.5 L 108.1269430338296 -0.5 L 95.5185496419148 -0.5 Z"/><text text-anchor="middle" pointer-events="none" font-size="8px" fill="#000000" x="74.0634715169148" y="3" font-family="Helvetica Neue, Helvetica, Arial, sans-serif">participate</text></g><g class="relationship" transform="translate(13.862223670256357 -305.33795951065963) rotate(418.2770708988375)"><path class="b-outline" fill="#ECB5C9" stroke="none" d="M 40 0.5 L 68.03325473773494 0.5 L 68.03325473773494 -0.5 L 40 -0.5 Z M 110.94341098773494 0.5 L 138.97666572546987 0.5 L 138.97666572546987 3.5 L 145.97666572546987 0 L 138.97666572546987 -3.5 L 138.97666572546987 -0.5 L 110.94341098773494 -0.5 Z"/><text text-anchor="middle" pointer-events="none" font-size="8px" fill="#000000" x="89.48833286273494" y="3" font-family="Helvetica Neue, Helvetica, Arial, sans-serif">participate</text></g><g class="relationship" transform="translate(405.3160273872443 -236.06560781020147) rotate(497.11723814692846)"><path class="b-outline" fill="#DA7194" stroke="none" d="M 40 0.5 L 76.42802515771197 0.5 L 76.42802515771197 -0.5 L 40 -0.5 Z M 118.01005640771197 0.5 L 154.43808156542394 0.5 L 154.43808156542394 3.5 L 161.43808156542394 0 L 154.43808156542394 -3.5 L 154.43808156542394 -0.5 L 118.01005640771197 -0.5 Z"/><text text-anchor="middle" pointer-events="none" font-size="8px" fill="#000000" x="97.21904078271197" y="3" transform="rotate(180 97.21904078271197 0)" font-family="Helvetica Neue, Helvetica, Arial, sans-serif">related_to</text></g></g><g class="layer nodes"><g class="node" aria-label="graph-node60" transform="translate(257.712742680685,-98.98690396240173)"><circle class="b-outline" cx="0" cy="0" r="40" fill="#F79767" stroke="#f36924" stroke-width="2px"/><text class="caption" text-anchor="middle" pointer-events="none" x="0" y="0" font-size="10px" fill="#FFFFFF" font-family="Helvetica Neue, Helvetica, Arial, sans-serif"> انتخاب کتاب سال</text><text class="caption" text-anchor="middle" pointer-events="none" x="0" y="10" font-size="10px" fill="#FFFFFF" font-family="Helvetica Neue, Helvetica, Arial, sans-serif"> رضوی</text></g><g class="node" aria-label="graph-node61" transform="translate(92.17444630456494,267.57704385721746)"><circle class="b-outline" cx="0" cy="0" r="40" fill="#F79767" stroke="#f36924" stroke-width="2px"/><text class="caption" text-anchor="middle" pointer-events="none" x="0" y="0" font-size="10px" fill="#FFFFFF" font-family="Helvetica Neue, Helvetica, Arial, sans-serif"> نمایشگاه پوستر</text><text class="caption" text-anchor="middle" pointer-events="none" x="0" y="10" font-size="10px" fill="#FFFFFF" font-family="Helvetica Neue, Helvetica, Arial, sans-serif"> دانشجویی</text></g><g class="node" aria-label="graph-node62" transform="translate(154.01505741353944,154.3097108324545)"><circle class="b-outline" cx="0" cy="0" r="40" fill="#F79767" stroke="#f36924" stroke-width="2px"/><text class="caption" text-anchor="middle" pointer-events="none" x="0" y="0" font-size="10px" fill="#FFFFFF" font-family="Helvetica Neue, Helvetica, Arial, sans-serif"> همایش نقش زیارت در</text><text class="caption" text-anchor="middle" pointer-events="none" x="0" y="10" font-size="10px" fill="#FFFFFF" font-family="Helvetica Neue, Helvetica, Arial, sans-serif"> کاهش آسیب اجتماعی</text></g><g class="node" aria-label="graph-node63" transform="translate(281.56743898483296,158.73826635114273)"><circle class="b-outline" cx="0" cy="0" r="40" fill="#F79767" stroke="#f36924" stroke-width="2px"/><text class="caption" text-anchor="middle" pointer-events="none" x="0" y="0" font-size="10px" fill="#FFFFFF" font-family="Helvetica Neue, Helvetica, Arial, sans-serif"> جشنواره دانشجویی</text><text class="caption" text-anchor="middle" pointer-events="none" x="0" y="10" font-size="10px" fill="#FFFFFF" font-family="Helvetica Neue, Helvetica, Arial, sans-serif"> دانشگاه علوم پزشکی</text></g><g class="node" aria-label="graph-node64" transform="translate(108.12548308575373,-472.38499711912186)"><circle class="b-outline" cx="0" cy="0" r="40" fill="#F79767" stroke="#f36924" stroke-width="2px"/><text class="caption" text-anchor="middle" pointer-events="none" x="0" y="5" font-size="10px" fill="#FFFFFF" font-family="Helvetica Neue, Helvetica, Arial, sans-serif"> تاتر تک بازیگر</text></g><g class="node" aria-label="graph-node65" transform="translate(-102.71242372307569,-69.73314251498465)"><circle class="b-outline" cx="0" cy="0" r="40" fill="#F79767" stroke="#f36924" stroke-width="2px"/><text class="caption" text-anchor="middle" pointer-events="none" x="0" y="0" font-size="10px" fill="#FFFFFF" font-family="Helvetica Neue, Helvetica, Arial, sans-serif"> مسابقه سیره و معارف</text><text class="caption" text-anchor="middle" pointer-events="none" x="0" y="10" font-size="10px" fill="#FFFFFF" font-family="Helvetica Neue, Helvetica, Arial, sans-serif"> رضوی</text></g><g class="node" aria-label="graph-node66" transform="translate(-222.36707474416255,-115.59307880027531)"><circle class="b-outline" cx="0" cy="0" r="40" fill="#F79767" stroke="#f36924" stroke-width="2px"/><text class="caption" text-anchor="middle" pointer-events="none" x="0" y="5" font-size="10px" fill="#FFFFFF" font-family="Helvetica Neue, Helvetica, Arial, sans-serif"> همایش جاده ولایت</text></g><g class="node" aria-label="graph-node67" transform="translate(-302.64309374608473,257.2632131305254)"><circle class="b-outline" cx="0" cy="0" r="40" fill="#F79767" stroke="#f36924" stroke-width="2px"/><text class="caption" text-anchor="middle" pointer-events="none" x="0" y="0" font-size="10px" fill="#FFFFFF" font-family="Helvetica Neue, Helvetica, Arial, sans-serif"> نمایشگاه پوستر</text><text class="caption" text-anchor="middle" pointer-events="none" x="0" y="10" font-size="10px" fill="#FFFFFF" font-family="Helvetica Neue, Helvetica, Arial, sans-serif"> دانشجویی</text></g><g class="node" aria-label="graph-node68" transform="translate(-174.26889735082145,252.49736066961208)"><circle class="b-outline" cx="0" cy="0" r="40" fill="#F79767" stroke="#f36924" stroke-width="2px"/><text class="caption" text-anchor="middle" pointer-events="none" x="0" y="0" font-size="10px" fill="#FFFFFF" font-family="Helvetica Neue, Helvetica, Arial, sans-serif"> همایش اقتصاد خانواده</text><text class="caption" text-anchor="middle" pointer-events="none" x="0" y="10" font-size="10px" fill="#FFFFFF" font-family="Helvetica Neue, Helvetica, Arial, sans-serif"> در فرهنگ رضوی</text></g><g class="node" aria-label="graph-node69" transform="translate(-343.0092416040795,-72.57960932905218)"><circle class="b-outline" cx="0" cy="0" r="40" fill="#F79767" stroke="#f36924" stroke-width="2px"/><text class="caption" text-anchor="middle" pointer-events="none" x="0" y="5" font-size="10px" fill="#FFFFFF" font-family="Helvetica Neue, Helvetica, Arial, sans-serif"> همایش ایثار و شهادت</text></g><g class="node" aria-label="graph-node70" transform="translate(-391.77039332147814,165.8612024514605)"><circle class="b-outline" cx="0" cy="0" r="40" fill="#F79767" stroke="#f36924" stroke-width="2px"/><text class="caption" text-anchor="middle" pointer-events="none" x="0" y="0" font-size="10px" fill="#FFFFFF" font-family="Helvetica Neue, Helvetica, Arial, sans-serif"> همایش سیره  معارف</text><text class="caption" text-anchor="middle" pointer-events="none" x="0" y="10" font-size="10px" fill="#FFFFFF" font-family="Helvetica Neue, Helvetica, Arial, sans-serif"> رضوی</text></g><g class="node" aria-label="graph-node71" transform="translate(-407.99613243334153,37.74429955528745)"><circle class="b-outline" cx="0" cy="0" r="40" fill="#F79767" stroke="#f36924" stroke-width="2px"/><text class="caption" text-anchor="middle" pointer-events="none" x="0" y="5" font-size="10px" fill="#FFFFFF" font-family="Helvetica Neue, Helvetica, Arial, sans-serif"> یادمان شهری رضوی</text></g><g class="node" aria-label="graph-node72" transform="translate(668.3914526484807,13.373441840040734)"><circle class="b-outline" cx="0" cy="0" r="40" fill="#F79767" stroke="#f36924" stroke-width="2px"/><text class="caption" text-anchor="middle" pointer-events="none" x="0" y="5" font-size="10px" fill="#FFFFFF" font-family="Helvetica Neue, Helvetica, Arial, sans-serif"> جشنواره دهم</text></g><g class="node" aria-label="graph-node74" transform="translate(-58.98389553915957,312.59935203415915)"><circle class="b-outline" cx="0" cy="0" r="40" fill="#FFC454" stroke="#d7a013" stroke-width="2px"/><text class="caption" text-anchor="middle" pointer-events="none" x="0" y="5" font-size="10px" fill="#2A2C34" font-family="Helvetica Neue, Helvetica, Arial, sans-serif"> عکس شماره 2</text></g><g class="node" aria-label="graph-node75" transform="translate(640.9865435753736,179.10574512320414)"><circle class="b-outline" cx="0" cy="0" r="40" fill="#D9C8AE" stroke="#c0a378" stroke-width="2px"/><text class="caption" text-anchor="middle" pointer-events="none" x="0" y="5" font-size="10px" fill="#2A2C34" font-family="Helvetica Neue, Helvetica, Arial, sans-serif"> مشهد</text></g><g class="node" aria-label="graph-node76" transform="translate(119.45224515950831,459.08827799645496)"><circle class="b-outline" cx="0" cy="0" r="40" fill="#D9C8AE" stroke="#c0a378" stroke-width="2px"/><text class="caption" text-anchor="middle" pointer-events="none" x="0" y="5" font-size="10px" fill="#2A2C34" font-family="Helvetica Neue, Helvetica, Arial, sans-serif"> سبزوار</text></g><g class="node" aria-label="graph-node78" transform="translate(25.99223044813295,-51.05155800097947)"><circle class="b-outline" cx="0" cy="0" r="40" fill="#4C8EDA" stroke="#2870c2" stroke-width="2px"/><text class="caption" text-anchor="middle" pointer-events="none" x="0" y="5" font-size="10px" fill="#FFFFFF" font-family="Helvetica Neue, Helvetica, Arial, sans-serif"> شرکت کننده</text></g><g class="node" aria-label="graph-node79" transform="translate(111.65100364461304,-147.14606747604864)"><circle class="b-outline" cx="0" cy="0" r="40" fill="#4C8EDA" stroke="#2870c2" stroke-width="2px"/><text class="caption" text-anchor="middle" pointer-events="none" x="0" y="5" font-size="10px" fill="#FFFFFF" font-family="Helvetica Neue, Helvetica, Arial, sans-serif"> داور</text></g><g class="node" aria-label="graph-node81" transform="translate(-84.57334708472236,57.75846690411453)"><circle class="b-outline" cx="0" cy="0" r="40" fill="#C990C0" stroke="#b261a5" stroke-width="2px"/><text class="caption" text-anchor="middle" pointer-events="none" x="0" y="5" font-size="10px" fill="#FFFFFF" font-family="Helvetica Neue, Helvetica, Arial, sans-serif"> رضا سعیدی</text></g><g class="node" aria-label="graph-node82" transform="translate(13.862223670256357,-305.33795951065963)"><circle class="b-outline" cx="0" cy="0" r="40" fill="#C990C0" stroke="#b261a5" stroke-width="2px"/><text class="caption" text-anchor="middle" pointer-events="none" x="0" y="5" font-size="10px" fill="#FFFFFF" font-family="Helvetica Neue, Helvetica, Arial, sans-serif"> محسن‌ کاهانی</text></g><g class="node" aria-label="graph-node84" transform="translate(-160.41260488594224,391.1814850267875)"><circle class="b-outline" cx="0" cy="0" r="40" fill="#8DCC93" stroke="#5db665" stroke-width="2px"/><text class="caption" text-anchor="middle" pointer-events="none" x="0" y="-5" font-size="10px" fill="#2A2C34" font-family="Helvetica Neue, Helvetica, Arial, sans-serif"> میلاد حضرت امام</text><text class="caption" text-anchor="middle" pointer-events="none" x="0" y="5" font-size="10px" fill="#2A2C34" font-family="Helvetica Neue, Helvetica, Arial, sans-serif"> علی بن موسی</text><text class="caption" text-anchor="middle" pointer-events="none" x="0" y="15" font-size="10px" fill="#2A2C34" font-family="Helvetica Neue, Helvetica, Arial, sans-serif"> الرضا(علیه السلام)</text></g><g class="node" aria-label="graph-node85" transform="translate(151.36620321474678,-25.211476782901556)"><circle class="b-outline" cx="0" cy="0" r="40" fill="#ECB5C9" stroke="#da7298" stroke-width="2px"/><text class="caption" text-anchor="middle" pointer-events="none" x="0" y="5" font-size="10px" fill="#2A2C34" font-family="Helvetica Neue, Helvetica, Arial, sans-serif"> نمایش</text></g><g class="node" aria-label="graph-node86" transform="translate(528.97223154078,-265.380345195595)"><circle class="b-outline" cx="0" cy="0" r="40" fill="#ECB5C9" stroke="#da7298" stroke-width="2px"/><text class="caption" text-anchor="middle" pointer-events="none" x="0" y="5" font-size="10px" fill="#2A2C34" font-family="Helvetica Neue, Helvetica, Arial, sans-serif"> موسیقی</text></g><g class="node" aria-label="graph-node87" transform="translate(199.1672250382678,-271.5424239360755)"><circle class="b-outline" cx="0" cy="0" r="40" fill="#ECB5C9" stroke="#da7298" stroke-width="2px"/><text class="caption" text-anchor="middle" pointer-events="none" x="0" y="5" font-size="10px" fill="#2A2C34" font-family="Helvetica Neue, Helvetica, Arial, sans-serif"> مقاله</text></g><g class="node" aria-label="graph-node88" transform="translate(528.240150133297,340.509522936289)"><circle class="b-outline" cx="0" cy="0" r="40" fill="#ECB5C9" stroke="#da7298" stroke-width="2px"/><text class="caption" text-anchor="middle" pointer-events="none" x="0" y="5" font-size="10px" fill="#2A2C34" font-family="Helvetica Neue, Helvetica, Arial, sans-serif"> صنایع دستی</text></g><g class="node" aria-label="graph-node89" transform="translate(202.46650564539533,360.4046034996417)"><circle class="b-outline" cx="0" cy="0" r="40" fill="#ECB5C9" stroke="#da7298" stroke-width="2px"/><text class="caption" text-anchor="middle" pointer-events="none" x="0" y="5" font-size="10px" fill="#2A2C34" font-family="Helvetica Neue, Helvetica, Arial, sans-serif"> ویدیو</text></g><g class="node" aria-label="graph-node90" transform="translate(268.70670960373235,29.617920366095664)"><circle class="b-outline" cx="0" cy="0" r="40" fill="#ECB5C9" stroke="#da7298" stroke-width="2px"/><text class="caption" text-anchor="middle" pointer-events="none" x="0" y="5" font-size="10px" fill="#2A2C34" font-family="Helvetica Neue, Helvetica, Arial, sans-serif"> داستان</text></g><g class="node" aria-label="graph-node92" transform="translate(-62.57281537490803,185.40150276130808)"><circle class="b-outline" cx="0" cy="0" r="40" fill="#57C7E3" stroke="#23b3d7" stroke-width="2px"/><text class="caption" text-anchor="middle" pointer-events="none" x="0" y="0" font-size="10px" fill="#2A2C34" font-family="Helvetica Neue, Helvetica, Arial, sans-serif"> نمایشنامه چـراغ</text><text class="caption" text-anchor="middle" pointer-events="none" x="0" y="10" font-size="10px" fill="#2A2C34" font-family="Helvetica Neue, Helvetica, Arial, sans-serif"> گمشـدگان</text></g><g class="node" aria-label="graph-node93" transform="translate(-6.571978961898707,430.70814271675687)"><circle class="b-outline" cx="0" cy="0" r="40" fill="#57C7E3" stroke="#23b3d7" stroke-width="2px"/><text class="caption" text-anchor="middle" pointer-events="none" x="0" y="5" font-size="10px" fill="#2A2C34" font-family="Helvetica Neue, Helvetica, Arial, sans-serif"> نمایشنامه دل لـرزه</text></g><g class="node" aria-label="graph-node94" transform="translate(307.0820348180673,284.40769579990274)"><circle class="b-outline" cx="0" cy="0" r="40" fill="#57C7E3" stroke="#23b3d7" stroke-width="2px"/><text class="caption" text-anchor="middle" pointer-events="none" x="0" y="0" font-size="10px" fill="#2A2C34" font-family="Helvetica Neue, Helvetica, Arial, sans-serif"> نمایشنامه روز بـر</text><text class="caption" text-anchor="middle" pointer-events="none" x="0" y="10" font-size="10px" fill="#2A2C34" font-family="Helvetica Neue, Helvetica, Arial, sans-serif"> می‌آیـد</text></g><g class="node" aria-label="graph-node95" transform="translate(384.2271799630799,84.49156470461033)"><circle class="b-outline" cx="0" cy="0" r="40" fill="#57C7E3" stroke="#23b3d7" stroke-width="2px"/><text class="caption" text-anchor="middle" pointer-events="none" x="0" y="5" font-size="10px" fill="#2A2C34" font-family="Helvetica Neue, Helvetica, Arial, sans-serif"> نمایشنامه ســردار</text></g><g class="node" aria-label="graph-node96" transform="translate(684.9371157006839,306.97362174911154)"><circle class="b-outline" cx="0" cy="0" r="40" fill="#57C7E3" stroke="#23b3d7" stroke-width="2px"/><text class="caption" text-anchor="middle" pointer-events="none" x="0" y="0" font-size="10px" fill="#2A2C34" font-family="Helvetica Neue, Helvetica, Arial, sans-serif"> نمایشنامه سفر به اقلیـم</text><text class="caption" text-anchor="middle" pointer-events="none" x="0" y="10" font-size="10px" fill="#2A2C34" font-family="Helvetica Neue, Helvetica, Arial, sans-serif"> آفتاب</text></g><g class="node" aria-label="graph-node97" transform="translate(-159.92808500486063,-325.6763405510213)"><circle class="b-outline" cx="0" cy="0" r="40" fill="#57C7E3" stroke="#23b3d7" stroke-width="2px"/><text class="caption" text-anchor="middle" pointer-events="none" x="0" y="0" font-size="10px" fill="#2A2C34" font-family="Helvetica Neue, Helvetica, Arial, sans-serif"> نمایشنامه شصت دقیقه</text><text class="caption" text-anchor="middle" pointer-events="none" x="0" y="10" font-size="10px" fill="#2A2C34" font-family="Helvetica Neue, Helvetica, Arial, sans-serif"> مانـده به وقت بارانی</text></g><g class="node" aria-label="graph-node91" transform="translate(319.1317573725008,-320.9983670429771)"><circle class="b-outline" cx="0" cy="0" r="40" fill="#57C7E3" stroke="#23b3d7" stroke-width="2px"/><text class="caption" text-anchor="middle" pointer-events="none" x="0" y="0" font-size="10px" fill="#2A2C34" font-family="Helvetica Neue, Helvetica, Arial, sans-serif"> نمایشنامه بـه روایت</text><text class="caption" text-anchor="middle" pointer-events="none" x="0" y="10" font-size="10px" fill="#2A2C34" font-family="Helvetica Neue, Helvetica, Arial, sans-serif"> خورشیـد</text></g><g class="node" aria-label="graph-node77" transform="translate(405.3160273872443,-236.06560781020147)"><circle class="b-outline" cx="0" cy="0" r="40" fill="#DA7194" stroke="#cc3c6c" stroke-width="2px"/><text class="caption" text-anchor="middle" pointer-events="none" x="0" y="5" font-size="10px" fill="#FFFFFF" font-family="Helvetica Neue, Helvetica, Arial, sans-serif"> مراسم اختتامیه</text></g><g class="node" aria-label="graph-node73" transform="translate(36.891268976118894,101.93129131852633)"><circle class="b-outline" cx="0" cy="0" r="40" fill="#FFC454" stroke="#d7a013" stroke-width="2px"/><text class="caption" text-anchor="middle" pointer-events="none" x="0" y="5" font-size="10px" fill="#2A2C34" font-family="Helvetica Neue, Helvetica, Arial, sans-serif"> عکس شماره 1</text></g><g class="node" aria-label="graph-node80" transform="translate(437.9672256950853,-115.35807099390217)"><circle class="b-outline" cx="0" cy="0" r="40" fill="#C990C0" stroke="#b261a5" stroke-width="2px"/><text class="caption" text-anchor="middle" pointer-events="none" x="0" y="5" font-size="10px" fill="#FFFFFF" font-family="Helvetica Neue, Helvetica, Arial, sans-serif"> محمود سلطانی</text></g><g class="node" aria-label="graph-node83" transform="translate(-209.17662955202726,83.959378120704)"><circle class="b-outline" cx="0" cy="0" r="40" fill="#604A0E" stroke="#423204" stroke-width="2px"/><text class="caption" text-anchor="middle" pointer-events="none" x="0" y="5" font-size="10px" fill="#FFFFFF" font-family="Helvetica Neue, Helvetica, Arial, sans-serif"> بنیاد امام رضا</text></g></g></svg>